<?xml version="1.0" standalone="no"?>
<!DOCTYPE svg PUBLIC "-//W3C//DTD SVG 20010904//EN"
 "http://www.w3.org/TR/2001/REC-SVG-20010904/DTD/svg10.dtd">
<svg version="1.0" xmlns="http://www.w3.org/2000/svg"
 width="1024.000000pt" height="1024.000000pt" viewBox="0 0 1024.000000 1024.000000"
 preserveAspectRatio="xMidYMid meet">

<g transform="translate(0.000000,1024.000000) scale(0.100000,-0.100000)"
fill="#000000" stroke="none">
<path d="M4454 8702 c-4 -9 -6 -20 -6 -24 1 -5 -2 -8 -7 -8 -14 0 -42 -104
-48 -180 -11 -130 28 -262 107 -365 42 -55 66 -105 49 -105 -5 0 -36 11 -69
25 -63 26 -105 32 -115 15 -4 -6 -10 -8 -14 -5 -5 2 -13 -6 -19 -19 -15 -33 1
-95 43 -172 l34 -61 -18 -34 c-10 -19 -21 -45 -25 -59 -3 -14 8 2 24 35 16 33
30 53 30 44 0 -9 8 -23 18 -32 18 -16 19 -16 17 3 -1 11 -5 23 -10 27 -4 5 -5
2 -1 -4 4 -7 3 -13 -2 -13 -5 0 -12 8 -16 18 -3 9 -9 23 -12 31 -5 9 -2 12 7
7 8 -4 4 1 -7 11 -12 10 -27 29 -34 43 -12 24 -12 24 6 8 11 -9 37 -25 59 -35
22 -10 56 -28 76 -40 20 -13 55 -29 78 -37 46 -17 131 -96 179 -167 16 -25 37
-51 46 -58 17 -14 70 -121 67 -134 -1 -5 2 -6 7 -3 5 3 18 -2 28 -10 10 -9 12
-12 4 -8 -13 7 -13 5 -1 -9 15 -18 26 -23 16 -7 -9 15 11 12 24 -4 6 -7 9 -22
5 -32 -4 -14 -3 -15 4 -6 7 10 12 5 22 -20 23 -56 80 -128 115 -143 28 -11 36
-22 49 -66 9 -29 16 -58 16 -65 0 -8 9 -18 21 -24 16 -9 24 -8 38 4 10 9 21
13 25 9 4 -4 9 3 13 15 4 18 10 21 39 16 21 -3 34 -1 34 6 0 6 7 10 16 8 10
-2 19 3 22 11 3 8 0 11 -7 7 -6 -4 -11 -2 -11 3 0 14 17 14 25 1 5 -8 11 -7
21 1 8 6 14 9 14 6 0 -3 16 10 35 30 31 32 50 84 25 68 -6 -3 -7 1 -4 9 11 29
24 5 22 -39 -2 -23 -6 -41 -9 -39 -5 3 -33 -30 -54 -65 -6 -10 -4 -12 5 -6 10
6 12 4 7 -8 -6 -16 3 -21 31 -18 6 1 12 -3 12 -8 0 -6 10 -9 23 -7 12 3 26 5
31 5 4 1 6 10 3 21 -3 11 -1 20 4 20 5 0 9 7 9 16 0 11 5 14 16 10 10 -4 18 1
21 13 3 12 15 21 32 23 15 2 25 8 23 16 -1 8 2 11 8 7 6 -3 8 -10 5 -15 -3 -5
-1 -11 5 -15 5 -3 10 -1 10 5 0 6 4 9 8 6 5 -3 8 14 7 37 -1 31 -5 41 -16 39
-8 -2 -11 0 -7 3 10 10 -19 65 -34 65 -6 0 -8 3 -5 6 4 4 12 2 19 -4 7 -6 18
-12 23 -14 6 -1 9 -7 7 -11 -1 -5 2 -5 9 -2 19 12 -29 53 -59 49 -26 -3 -26
-2 -7 13 17 13 17 15 2 10 -11 -4 -25 1 -37 13 -11 11 -20 17 -20 13 0 -5 -4
-3 -8 2 -4 6 -26 22 -49 37 -32 21 -49 44 -74 95 -17 37 -51 95 -74 128 -42
59 -126 145 -143 145 -5 0 -24 14 -43 31 -33 29 -33 31 -15 45 11 8 30 14 43
14 13 0 23 5 23 11 0 6 -13 8 -30 5 -20 -3 -37 2 -52 15 -22 18 -22 20 -5 33
9 7 17 25 17 39 0 23 -4 25 -47 29 -30 3 -56 0 -70 -8 -42 -26 -69 -24 -97 7
-14 16 -30 29 -35 29 -13 0 -22 -28 -11 -35 5 -3 7 -12 3 -20 -3 -8 -1 -15 4
-15 17 0 12 -47 -6 -64 -18 -16 -22 -15 -73 23 -29 22 -61 54 -71 71 -22 37
-28 37 -49 0 -26 -45 -50 -39 -77 21 -13 27 -50 87 -84 132 -69 93 -90 137
-113 233 -19 81 -14 223 10 292 8 23 12 42 8 42 -4 0 -1 4 7 9 8 5 9 11 3 15
-5 3 -13 -2 -18 -12z m-29 -209 c1 -139 6 -203 17 -197 4 3 8 -1 8 -8 0 -22
50 -109 102 -176 53 -69 93 -141 84 -150 -3 -3 -6 0 -6 7 0 7 -4 10 -8 7 -5
-3 -19 13 -33 35 -13 22 -43 66 -65 97 -79 109 -123 229 -124 336 0 33 19 166
24 166 0 0 1 -53 1 -117z m175 -663 c6 -11 8 -20 6 -20 -3 0 -10 9 -16 20 -6
11 -8 20 -6 20 3 0 10 -9 16 -20z m444 -156 c9 -24 2 -26 -12 -4 -7 11 -8 20
-3 20 5 0 12 -7 15 -16z m317 -394 c-11 -21 -21 -46 -22 -56 0 -13 -3 -10 -9
8 -5 19 -3 44 8 77 16 45 18 47 31 29 12 -18 11 -25 -8 -58z m49 -78 c0 -5 -7
-17 -15 -28 -14 -18 -14 -17 -4 9 12 27 19 34 19 19z"/>
<path d="M4531 8116 c9 -12 23 -32 32 -46 10 -13 17 -20 17 -14 0 6 -15 26
-32 45 -18 20 -26 26 -17 15z"/>
<path d="M5068 8421 c11 -7 11 -9 -2 -14 -9 -4 -16 -12 -16 -19 0 -9 3 -9 11
2 8 12 9 10 7 -9 -4 -31 17 -38 32 -11 15 29 4 60 -23 60 -16 0 -18 -3 -9 -9z
m32 -35 c0 -2 -8 -10 -17 -17 -16 -13 -17 -12 -4 4 13 16 21 21 21 13z"/>
<path d="M4108 8258 c-15 -35 -16 -44 -5 -57 8 -9 17 -24 20 -34 9 -23 31 -17
36 9 1 10 10 26 17 35 13 14 13 21 -2 53 -23 47 -45 46 -66 -6z m55 1 c23 -42
9 -62 -32 -46 -29 11 -29 11 -13 44 9 18 18 33 21 33 3 0 14 -14 24 -31z"/>
<path d="M5105 8225 c-16 -37 -16 -43 0 -93 14 -45 19 -51 31 -41 9 7 22 25
30 41 12 24 12 32 0 60 -8 18 -21 42 -29 53 -15 19 -16 19 -32 -20z m55 -67
c0 -17 -4 -27 -10 -23 -5 3 -7 0 -4 -8 8 -22 -14 -30 -24 -10 -5 10 -12 34
-16 53 -4 22 -3 28 2 16 8 -19 9 -19 15 4 5 20 8 21 21 10 9 -7 16 -26 16 -42z"/>
<path d="M4937 8099 c-20 -12 -22 -32 -3 -48 18 -15 46 -4 46 19 0 26 -22 40
-43 29z m14 -24 l9 20 -3 -20 c-2 -22 -21 -24 -23 -3 0 7 1 6 4 -2 4 -12 7
-11 13 5z"/>
<path d="M5875 7823 c-8 -20 -14 -38 -11 -40 2 -2 9 10 16 26 l12 30 24 -46
c23 -42 24 -47 9 -69 -9 -14 -11 -24 -5 -24 6 0 15 12 20 26 8 21 5 37 -15 80
-14 30 -28 54 -30 54 -3 0 -12 -16 -20 -37z"/>
<path d="M5736 7781 c-42 -44 -72 -104 -80 -156 -5 -33 -3 -30 13 18 21 62 41
97 79 137 l24 25 -7 -25 c-5 -20 -4 -22 5 -10 42 58 19 66 -34 11z"/>
<path d="M5851 7757 c-1 -23 25 -64 47 -72 12 -4 11 0 -5 17 -12 13 -26 34
-32 48 -7 18 -10 20 -10 7z"/>
<path d="M4360 7636 c0 -8 4 -17 9 -20 5 -4 7 3 4 14 -6 23 -13 26 -13 6z"/>
<path d="M6025 7630 c-3 -5 1 -10 10 -10 9 0 13 5 10 10 -3 6 -8 10 -10 10 -2
0 -7 -4 -10 -10z"/>
<path d="M4450 7611 c-14 -28 -13 -35 15 -65 29 -31 13 -34 -33 -6 -39 24 -49
25 -31 4 19 -23 19 -54 0 -55 -9 -1 -32 -1 -51 -1 -26 0 -22 -2 20 -10 46 -8
129 -28 238 -55 21 -5 22 -2 22 43 0 69 -26 114 -80 142 -54 27 -86 28 -100 3z"/>
<path d="M4380 7585 c0 -8 4 -15 10 -15 5 0 7 7 4 15 -4 8 -8 15 -10 15 -2 0
-4 -7 -4 -15z"/>
<path d="M5652 7555 c0 -16 2 -22 5 -12 2 9 2 23 0 30 -3 6 -5 -1 -5 -18z"/>
<path d="M5711 7554 c0 -11 3 -14 6 -6 3 7 2 16 -1 19 -3 4 -6 -2 -5 -13z"/>
<path d="M4288 7493 c7 -3 16 -2 19 1 4 3 -2 6 -13 5 -11 0 -14 -3 -6 -6z"/>
<path d="M4029 7473 c-13 -16 -12 -17 4 -4 16 13 21 21 13 21 -2 0 -10 -8 -17
-17z"/>
<path d="M4130 7485 c0 -10 29 -24 34 -17 3 6 -3 12 -14 15 -11 3 -20 4 -20 2z"/>
<path d="M6966 7467 c3 -10 9 -15 12 -12 3 3 0 11 -7 18 -10 9 -11 8 -5 -6z"/>
<path d="M4178 7453 c7 -3 16 -2 19 1 4 3 -2 6 -13 5 -11 0 -14 -3 -6 -6z"/>
<path d="M4259 7445 c-1 -3 -2 -11 -3 -17 -1 -11 -58 -26 -113 -30 -7 -1 -13
-8 -13 -15 0 -8 -4 -12 -8 -9 -5 3 -9 -1 -9 -9 0 -8 4 -12 9 -9 4 3 8 -4 8
-15 0 -24 -3 -23 69 -26 68 -3 121 13 121 36 0 9 8 20 17 23 15 6 15 8 3 17
-11 8 -7 9 18 5 18 -3 32 -1 32 4 0 6 -4 10 -10 10 -17 0 -11 18 8 23 10 2 3
7 -19 11 -28 6 -44 3 -65 -11 -16 -10 -25 -13 -21 -7 4 7 0 14 -8 18 -8 3 -16
3 -16 1z"/>
<path d="M6314 7440 c21 -4 48 -5 59 -2 14 4 18 2 12 -7 -5 -10 -2 -11 11 -7
26 8 110 -16 178 -50 100 -51 203 -151 288 -281 40 -60 54 -66 17 -7 -11 19
-17 34 -13 34 5 0 -5 13 -21 29 -50 50 -65 67 -65 77 0 5 -24 33 -52 61 -36
35 -83 65 -148 96 -111 52 -167 67 -247 66 -55 -1 -56 -2 -19 -9z"/>
<path d="M4707 7409 c7 -7 15 -10 18 -7 3 3 -2 9 -12 12 -14 6 -15 5 -6 -5z"/>
<path d="M5778 7392 c25 -34 68 -65 84 -60 6 2 -5 12 -25 22 -20 9 -37 22 -37
29 0 7 -10 18 -21 26 l-22 13 21 -30z"/>
<path d="M4534 7399 c-4 -8 -3 -9 4 -5 7 4 12 1 12 -7 0 -10 -7 -13 -20 -10
-11 3 -20 0 -20 -6 0 -6 7 -11 16 -11 8 0 13 -4 9 -10 -3 -5 -13 -6 -23 -3
-35 13 44 -58 93 -83 27 -14 64 -37 80 -51 30 -25 30 -25 -17 2 -27 15 -48 23
-48 18 0 -4 -4 -2 -9 6 -17 26 -37 21 -36 -10 0 -16 3 -29 7 -29 5 0 8 -4 8
-10 0 -5 -7 -6 -17 -3 -11 4 -14 3 -9 -5 4 -7 -4 -23 -17 -36 -16 -15 -21 -27
-14 -29 9 -3 8 -8 -2 -18 -11 -11 -14 -11 -18 -1 -12 33 -60 72 -85 70 -20 -2
-25 -6 -18 -18 5 -9 2 -20 -8 -30 -14 -13 -15 -13 -10 1 8 20 -11 51 -19 31
-2 -6 -9 -10 -14 -6 -5 3 -9 -1 -9 -9 0 -8 -8 -14 -17 -13 -13 1 -18 -6 -17
-22 1 -12 -1 -21 -3 -18 -3 3 -15 -5 -27 -17 -13 -14 -30 -21 -45 -19 -21 3
-23 1 -19 -22 5 -25 -7 -37 -14 -15 -2 7 -10 4 -18 -7 -13 -16 -13 -17 0 -9 8
5 0 -6 -17 -24 l-33 -32 -31 22 c-24 17 -33 19 -39 9 -4 -7 -14 -10 -21 -8 -8
3 -22 -4 -31 -14 -9 -11 -19 -19 -22 -19 -20 3 -26 -1 -26 -15 0 -8 -5 -12
-10 -9 -6 4 -10 3 -9 -2 1 -4 0 -11 -1 -15 -4 -14 -7 -28 -9 -40 0 -6 -4 -8
-8 -5 -6 7 -32 -21 -33 -35 0 -5 7 -8 15 -8 8 0 15 4 15 9 0 5 7 11 15 15 31
12 13 -14 -22 -33 -21 -11 -33 -20 -27 -21 11 0 11 -40 1 -57 -3 -5 -1 -15 5
-23 8 -12 9 -12 4 2 -5 15 17 38 34 35 3 0 28 8 57 17 33 11 54 24 58 37 7 22
42 33 85 27 24 -4 30 -1 30 13 0 10 16 34 35 55 33 35 37 36 80 30 33 -4 44
-3 39 6 -4 7 -3 8 4 4 16 -9 3 -36 -14 -29 -7 3 -17 -3 -20 -12 -4 -9 -10 -13
-13 -8 -3 5 -21 -1 -40 -14 -19 -13 -31 -23 -26 -23 4 0 -3 -8 -15 -18 l-22
-18 46 -30 c46 -30 120 -117 130 -152 2 -9 10 -43 16 -74 6 -32 16 -58 22 -58
39 0 127 78 113 100 -3 6 -1 10 6 10 7 0 10 3 6 6 -11 12 23 63 51 78 15 8 45
19 68 25 25 7 48 22 63 41 16 22 28 29 41 25 25 -8 75 19 96 50 21 33 21 122
-1 168 -13 29 -26 39 -56 47 -21 6 -39 15 -39 20 0 5 -7 7 -15 4 -8 -4 -12
-11 -8 -18 3 -6 3 -8 -2 -4 -4 4 -14 3 -22 -3 -10 -9 -13 -8 -13 0 0 7 26 24
58 38 31 15 64 35 74 45 9 11 19 15 22 10 3 -6 -1 -13 -9 -16 -8 -3 -14 -11
-13 -18 2 -7 -4 -12 -14 -10 -9 1 -20 -3 -24 -9 -5 -8 -3 -9 6 -4 10 6 12 4 7
-8 -5 -12 -1 -17 13 -17 12 0 26 -12 35 -30 9 -17 19 -29 23 -26 4 2 8 -12 9
-33 1 -20 5 -52 8 -71 l7 -35 25 29 c17 20 23 35 18 50 -11 35 -23 101 -20
104 2 2 11 -12 20 -32 20 -41 22 -42 52 -21 28 20 37 6 28 -44 -5 -31 -3 -38
10 -38 9 0 23 14 32 30 12 25 13 37 3 72 -7 24 -22 58 -33 77 -12 18 -21 36
-22 40 0 3 -4 10 -9 15 -5 5 -6 2 -2 -7 6 -12 5 -12 -6 1 -7 9 -19 14 -26 11
-7 -2 -39 24 -73 58 -42 43 -74 66 -107 77 -26 9 -63 27 -82 42 -19 14 -38 25
-42 23 -5 -1 -7 3 -5 10 3 18 -100 72 -109 57z m284 -184 c10 -10 -3 -12 -40
-7 -21 2 -38 9 -38 14 0 11 67 5 78 -7z m-403 -125 c3 -5 1 -10 -4 -10 -6 0
-11 5 -11 10 0 6 2 10 4 10 3 0 8 -4 11 -10z m239 -36 c24 -9 20 -19 -21 -50
-20 -15 -33 -21 -28 -13 4 8 -2 4 -13 -8 -12 -12 -30 -24 -40 -27 -14 -5 -18
-15 -17 -39 2 -18 -9 -55 -23 -85 -25 -51 -25 -56 -13 -114 7 -33 10 -63 7
-66 -3 -3 -6 4 -6 16 0 12 -5 22 -11 22 -6 0 -8 9 -4 20 4 11 3 20 -2 19 -29
-5 -53 29 -53 76 0 34 -15 31 -30 -5 -7 -17 -17 -33 -22 -36 -5 -4 -3 7 5 22
25 50 28 82 12 114 -11 21 -20 28 -33 23 -9 -3 -6 3 8 13 14 10 45 35 69 56
60 52 163 82 215 62z m120 -143 c3 -5 -1 -14 -8 -20 -12 -10 -13 -8 -9 8 6 23
9 25 17 12z m-799 -41 c3 -5 1 -10 -4 -10 -6 0 -11 5 -11 10 0 6 2 10 4 10 3
0 8 -4 11 -10z"/>
<path d="M4476 6895 c-8 -22 1 -35 25 -35 15 0 20 6 17 22 -4 27 -33 36 -42
13z"/>
<path d="M6442 7392 c2 -13 -3 -17 -22 -15 -43 3 -53 -4 -33 -25 10 -11 20
-19 23 -18 3 1 6 -3 7 -7 0 -5 12 -21 26 -35 42 -46 71 -116 62 -154 -14 -66
-7 -96 45 -195 29 -55 47 -99 41 -101 -6 -2 -9 -7 -6 -12 3 -5 -3 -11 -14 -15
-21 -6 -45 -27 -81 -70 -21 -25 -18 -24 15 6 51 46 93 61 140 48 39 -11 42
-14 19 -23 -8 -3 -12 -2 -9 4 9 15 -7 12 -53 -10 -24 -12 -40 -25 -37 -30 4
-6 8 -10 11 -10 3 0 3 4 0 9 -3 5 1 12 9 15 13 5 14 2 3 -17 -7 -12 -11 -28
-9 -35 1 -8 -3 -20 -10 -28 -9 -11 -9 -18 -1 -26 7 -7 12 -19 12 -27 0 -17 43
-41 72 -41 10 0 18 -7 18 -15 0 -9 6 -15 13 -14 24 4 67 -21 67 -38 0 -15 2
-16 10 -3 7 11 10 11 10 2 0 -7 4 -11 9 -8 9 6 22 -17 26 -46 4 -35 44 -49 52
-18 3 10 10 17 16 14 18 -6 41 12 32 26 -4 6 -12 9 -19 7 -7 -3 -12 3 -13 12
-1 10 5 18 12 18 8 0 12 -4 9 -8 -2 -4 0 -10 6 -14 5 -3 10 -1 10 5 0 6 5 8
10 5 6 -4 8 -11 5 -16 -4 -5 -2 -9 4 -9 5 0 12 6 14 13 4 9 6 9 6 -1 1 -7 6
-10 11 -7 6 3 10 2 10 -2 0 -5 10 -9 23 -10 22 -2 22 -2 2 13 -11 8 -19 18
-17 22 1 4 -2 7 -7 7 -5 0 -13 4 -18 9 -5 5 -3 6 5 2 7 -4 12 -2 12 5 0 7 11
2 25 -11 13 -12 24 -25 23 -29 -1 -15 15 -51 24 -51 5 0 6 -5 3 -10 -4 -6 -11
-7 -17 -4 -7 4 -8 2 -4 -4 4 -8 15 -8 31 -2 15 6 27 6 30 -1 4 -5 10 -7 15 -4
4 3 11 -2 14 -11 3 -8 10 -13 15 -9 15 9 23 -13 11 -32 -9 -15 -10 -14 -4 7 6
24 6 24 -9 5 -17 -22 -2 -41 19 -24 9 7 16 4 24 -13 11 -22 11 -22 -5 -3 -15
19 -16 19 -13 -5 2 -20 -1 -25 -17 -23 -18 1 -19 1 -3 -11 13 -9 14 -16 6 -24
-8 -8 -8 -15 0 -25 16 -19 23 -178 8 -170 -7 3 -6 1 1 -7 6 -7 9 -19 6 -27 -3
-8 0 -26 8 -39 10 -20 11 -27 1 -33 -10 -6 -9 -11 3 -21 8 -7 13 -20 10 -29
-2 -9 -6 -31 -7 -48 -1 -18 -7 -33 -13 -33 -5 0 -5 -4 2 -8 9 -6 7 -18 -7 -50
-11 -24 -15 -40 -10 -37 15 9 88 206 100 272 13 66 36 113 36 74 0 -11 -3 -18
-6 -16 -3 2 -5 -29 -4 -68 1 -40 -1 -74 -6 -77 -4 -3 -10 -25 -13 -50 -4 -33
-3 -40 4 -25 8 18 9 17 4 -5 -2 -14 -5 -29 -5 -33 0 -5 -5 -5 -11 -1 -8 4 -9
-1 -4 -16 4 -14 3 -20 -3 -16 -5 3 -13 -6 -16 -22 -4 -15 -9 -36 -12 -47 -4
-15 -3 -16 4 -6 6 8 8 -12 4 -57 -3 -48 1 -97 13 -149 22 -98 23 -103 24 -76
1 12 6 25 12 29 8 5 10 -1 6 -18 -5 -20 -3 -27 12 -31 14 -3 17 0 14 14 -6 20
11 26 22 9 4 -6 12 -7 18 -3 23 14 36 11 52 -14 12 -17 20 -21 29 -14 8 7 15
4 24 -10 16 -25 27 -24 29 3 1 14 -1 18 -6 10 -5 -8 -14 -3 -31 20 -21 28 -22
35 -11 62 7 17 17 47 23 66 5 19 14 39 19 44 5 5 1 14 -8 21 -23 17 -10 45 17
38 12 -3 19 -11 17 -17 -2 -6 3 -18 12 -28 15 -15 16 -14 17 13 1 16 -3 29 -9
29 -5 0 -4 7 3 15 10 12 10 19 2 27 -9 9 -12 9 -12 -1 0 -7 -5 -9 -11 -5 -8 4
-8 9 0 17 6 6 11 24 11 39 0 15 5 28 10 28 28 0 -6 50 -38 54 -9 2 -19 11 -20
21 -3 12 0 15 10 10 7 -5 9 -4 5 0 -11 13 -38 15 -31 3 4 -6 1 -9 -7 -6 -15 5
-17 41 -4 72 6 13 3 23 -10 32 -10 8 -19 28 -20 45 -1 17 -7 34 -14 38 -18 12
-12 24 18 39 20 9 21 11 5 8 -12 -2 -21 2 -21 9 0 7 6 11 14 8 10 -4 11 1 6
18 -13 38 -9 74 7 71 10 -3 9 3 -4 17 -13 15 -16 24 -9 33 6 7 9 21 8 31 -2 9
2 17 8 17 7 0 23 9 37 20 17 14 19 18 6 14 -11 -4 -22 -1 -28 7 -8 11 -9 10
-4 -3 4 -15 1 -16 -22 -7 -15 6 -29 10 -32 10 -3 0 -4 6 -3 12 1 7 5 26 7 42
5 27 5 28 -3 5 l-9 -25 -1 28 c-1 20 -6 27 -21 27 -15 0 -20 7 -20 28 0 16 -9
37 -19 46 -17 15 -18 22 -8 44 6 15 18 33 25 41 8 8 11 22 9 32 -4 16 -1 18
19 13 26 -7 29 1 14 40 -9 26 -30 36 -30 15 0 -5 5 -7 10 -4 6 3 10 1 10 -4 0
-6 -4 -11 -10 -11 -11 0 -30 -32 -35 -60 -5 -27 -35 -65 -66 -82 -23 -14 -28
-13 -52 6 -19 15 -24 25 -17 32 6 6 12 20 15 32 2 12 6 26 10 31 3 5 1 12 -5
16 -5 3 -10 1 -10 -4 0 -6 -5 -11 -11 -11 -6 0 -9 7 -5 15 6 16 -19 21 -28 6
-6 -9 -52 -8 -61 1 -2 2 2 16 10 31 9 18 10 27 3 27 -20 0 -1 11 28 16 36 6
44 12 44 29 0 22 -17 27 -34 9 -15 -14 -19 -13 -46 9 -16 14 -26 28 -22 32 4
4 -2 5 -13 3 -26 -4 -27 36 -1 55 16 12 26 12 63 1 23 -7 43 -9 43 -4 0 4 -6
11 -12 13 -8 3 -6 6 5 6 19 1 22 19 6 41 -9 12 -10 11 -6 -7 7 -32 -9 -28 -30
7 -9 17 -24 30 -33 30 -10 0 -11 -3 -4 -8 12 -8 3 -46 -14 -56 -17 -10 -42 5
-58 37 -12 23 -18 27 -25 16 -10 -15 -10 -14 -14 54 -4 61 -9 73 -34 80 -12 3
-19 1 -16 -3 3 -5 1 -12 -5 -15 -6 -4 -8 -16 -4 -28 6 -22 6 -22 -10 -2 -8 11
-16 25 -16 32 0 6 -9 18 -20 26 -11 8 -49 48 -85 91 -91 105 -213 199 -308
235 -24 9 -27 9 -25 -7z m508 -352 c0 -5 -2 -10 -4 -10 -3 0 -8 5 -11 10 -3 6
-1 10 4 10 6 0 11 -4 11 -10z m59 -229 c0 -10 -2 -12 -6 -3 -2 6 -8 10 -12 8
-4 -3 -8 4 -8 15 -2 17 1 18 13 9 8 -7 14 -20 13 -29z m138 -66 c0 -8 -4 -15
-9 -15 -10 0 -11 14 -1 23 9 10 10 9 10 -8z m-120 -17 c-3 -8 -6 -5 -6 6 -1
11 2 17 5 13 3 -3 4 -12 1 -19z m-335 -66 c-7 -2 -10 -8 -6 -13 6 -10 -9 -13
-19 -3 -9 9 16 33 28 26 5 -3 4 -7 -3 -10z m355 -44 c-3 -8 -6 -5 -6 6 -1 11
2 17 5 13 3 -3 4 -12 1 -19z m53 -2 c0 -2 -8 -10 -17 -17 -16 -13 -17 -12 -4
4 13 16 21 21 21 13z m-390 -26 c0 -5 -2 -10 -4 -10 -3 0 -8 5 -11 10 -3 6 -1
10 4 10 6 0 11 -4 11 -10z m127 -15 c0 -8 -4 -12 -9 -9 -5 3 -6 10 -3 15 9 13
12 11 12 -6z m310 -27 c-3 -7 -5 -2 -5 12 0 14 2 19 5 13 2 -7 2 -19 0 -25z
m-202 12 c3 -6 -1 -7 -9 -4 -18 7 -21 14 -7 14 6 0 13 -4 16 -10z m157 -54 c4
3 4 -4 1 -15 -7 -27 -19 -35 -29 -20 -4 8 -3 9 4 5 7 -4 12 -1 12 9 0 9 -4 14
-9 10 -5 -3 -13 0 -17 6 -5 8 -3 9 6 4 10 -6 12 -4 7 8 -17 42 -17 49 0 19 11
-18 22 -30 25 -26z m63 -218 c-4 -23 -4 -23 11 -3 16 19 16 19 9 -5 -4 -14
-12 -28 -18 -32 -18 -11 -28 2 -17 23 6 10 8 19 5 19 -4 0 -3 5 0 10 10 16 14
11 10 -12z m112 -160 c-3 -8 -6 -5 -6 6 -1 11 2 17 5 13 3 -3 4 -12 1 -19z
m33 -213 c0 -8 -4 -15 -10 -15 -5 0 -7 7 -4 15 4 8 8 15 10 15 2 0 4 -7 4 -15z
m124 -87 c-3 -4 -9 -8 -15 -8 -5 0 -9 4 -9 8 0 5 7 9 15 9 8 0 12 -4 9 -9z
m12 -59 c8 -14 -11 -33 -25 -25 -11 7 -4 36 9 36 5 0 12 -5 16 -11z m-141 -29
c3 -5 -2 -10 -12 -11 -16 0 -16 -1 2 -9 16 -7 17 -9 3 -9 -9 -1 -20 4 -23 9
-7 12 2 30 15 30 5 0 12 -4 15 -10z m-27 -120 c6 0 12 -7 12 -15 0 -8 9 -19
20 -25 11 -6 18 -15 15 -21 -4 -5 -11 -7 -16 -4 -5 4 -9 -1 -9 -9 0 -20 -14
-21 -29 -2 -10 11 -8 16 5 24 27 15 0 44 -32 36 -18 -5 -24 -2 -24 11 0 13 6
16 23 11 12 -3 28 -6 35 -6z m112 -80 c0 -5 -2 -10 -4 -10 -3 0 -8 5 -11 10
-3 6 -1 10 4 10 6 0 11 -4 11 -10z"/>
<path d="M4865 7380 c3 -5 8 -10 11 -10 2 0 4 5 4 10 0 6 -5 10 -11 10 -5 0
-7 -4 -4 -10z"/>
<path d="M6800 7370 c-9 -6 -10 -10 -3 -10 6 0 15 5 18 10 8 12 4 12 -15 0z"/>
<path d="M4818 7328 c13 -21 31 -38 39 -38 8 0 22 -9 31 -21 31 -38 76 6 52
51 -6 11 -18 20 -26 20 -8 0 -13 -4 -9 -9 3 -5 0 -13 -5 -16 -8 -5 -6 -13 6
-26 9 -11 15 -21 13 -23 -2 -3 -19 13 -37 35 -18 21 -28 39 -23 39 6 0 11 -5
11 -11 0 -8 5 -7 15 1 20 17 15 32 -14 37 -16 2 -20 -1 -15 -9 6 -10 5 -10 -7
-1 -8 7 -24 11 -36 10 -20 -1 -20 -2 5 -39z"/>
<path d="M5765 7280 c21 -22 41 -40 44 -40 3 0 -13 18 -34 40 -21 22 -41 40
-44 40 -3 0 13 -18 34 -40z"/>
<path d="M5902 7295 c39 -26 53 -31 43 -16 -5 10 -63 41 -74 41 -3 0 11 -11
31 -25z"/>
<path d="M4295 7285 c-27 -8 -52 -14 -55 -15 -3 0 -6 -8 -6 -19 0 -18 1 -18
41 0 52 24 122 24 185 0 56 -21 64 -8 14 20 -42 25 -120 31 -179 14z"/>
<path d="M7038 7283 c7 -3 16 -2 19 1 4 3 -2 6 -13 5 -11 0 -14 -3 -6 -6z"/>
<path d="M5960 7234 c8 -10 15 -20 16 -22 1 -2 5 1 8 7 4 5 -4 15 -16 22 -22
12 -22 11 -8 -7z"/>
<path d="M5732 7220 c7 -11 17 -20 22 -20 5 0 1 9 -9 20 -10 11 -20 20 -22 20
-2 0 2 -9 9 -20z"/>
<path d="M4199 7213 c-13 -16 -12 -17 4 -4 16 13 21 21 13 21 -2 0 -10 -8 -17
-17z"/>
<path d="M7630 7210 c0 -5 5 -10 11 -10 5 0 7 5 4 10 -3 6 -8 10 -11 10 -2 0
-4 -4 -4 -10z"/>
<path d="M6320 7185 c0 -8 7 -15 15 -15 8 0 15 7 15 15 0 8 -7 15 -15 15 -8 0
-15 -7 -15 -15z"/>
<path d="M3796 7173 c-6 -14 -5 -15 5 -6 7 7 10 15 7 18 -3 3 -9 -2 -12 -12z"/>
<path d="M4144 7168 l-19 -23 23 19 c21 18 27 26 19 26 -2 0 -12 -10 -23 -22z"/>
<path d="M5766 7138 c18 -69 18 -117 -1 -173 -9 -25 -14 -49 -11 -54 4 -6 40
-7 56 -1 7 3 23 7 38 8 6 1 11 5 11 10 -3 17 2 26 9 15 6 -10 9 143 3 192 -2
18 -3 18 -12 -4 l-9 -23 -45 41 c-24 22 -46 41 -49 41 -2 0 2 -24 10 -52z"/>
<path d="M6901 7170 c-14 -8 -7 -30 9 -30 11 0 21 28 12 34 -5 3 -14 1 -21 -4z"/>
<path d="M4960 7160 c0 -5 5 -10 11 -10 5 0 7 5 4 10 -3 6 -8 10 -11 10 -2 0
-4 -4 -4 -10z"/>
<path d="M7130 7142 c0 -7 7 -24 16 -38 9 -13 20 -39 24 -57 7 -27 8 -28 9 -7
0 14 -11 45 -24 70 -13 25 -24 39 -25 32z"/>
<path d="M5459 7123 c-13 -16 -12 -17 4 -4 9 7 17 15 17 17 0 8 -8 3 -21 -13z"/>
<path d="M7097 7097 c-21 -52 -22 -103 -2 -111 8 -3 15 -12 15 -21 0 -8 5 -15
11 -15 5 0 7 -4 4 -10 -3 -5 -4 -10 -2 -10 6 0 47 69 47 78 0 4 -11 -6 -25
-23 -21 -26 -28 -25 -24 2 0 3 -6 10 -15 15 -9 5 -16 21 -16 36 0 20 3 23 9
12 6 -8 8 -17 6 -20 -2 -4 2 -7 10 -7 11 0 10 5 -2 24 -13 19 -13 28 -3 53 7
17 11 32 9 35 -3 2 -12 -15 -22 -38z"/>
<path d="M4094 7108 l-19 -23 23 19 c21 18 27 26 19 26 -2 0 -12 -10 -23 -22z"/>
<path d="M5114 7119 c-3 -6 5 -23 20 -37 l26 -27 0 25 c0 39 -30 64 -46 39z"/>
<path d="M7896 7121 c-3 -5 1 -11 9 -15 15 -6 29 7 18 18 -9 9 -21 8 -27 -3z"/>
<path d="M7001 7093 c-10 -19 -6 -33 10 -33 12 0 18 26 9 40 -6 10 -10 8 -19
-7z"/>
<path d="M4048 7083 c7 -3 16 -2 19 1 4 3 -2 6 -13 5 -11 0 -14 -3 -6 -6z"/>
<path d="M4257 7079 c7 -7 15 -10 18 -7 3 3 -2 9 -12 12 -14 6 -15 5 -6 -5z"/>
<path d="M3988 7073 c6 -2 18 -2 25 0 6 3 1 5 -13 5 -14 0 -19 -2 -12 -5z"/>
<path d="M5305 7040 c-8 -24 11 -60 30 -60 23 0 19 57 -4 70 -16 8 -21 6 -26
-10z"/>
<path d="M3859 7023 c-13 -16 -12 -17 4 -4 9 7 17 15 17 17 0 8 -8 3 -21 -13z"/>
<path d="M5701 6998 c-7 -18 -19 -46 -26 -61 -14 -26 -13 -27 8 -25 37 6 47
18 47 56 0 56 -14 70 -29 30z"/>
<path d="M3795 6929 c-4 -6 -5 -12 -2 -15 2 -3 7 2 10 11 7 17 1 20 -8 4z"/>
<path d="M7660 6932 c0 -12 19 -26 26 -19 2 2 -2 10 -11 17 -9 8 -15 8 -15 2z"/>
<path d="M5688 6904 c-4 -3 -12 -6 -20 -7 -14 -3 -18 -9 -18 -29 1 -8 6 -5 15
6 7 10 18 16 23 12 5 -3 9 1 9 9 0 17 -1 17 -9 9z"/>
<path d="M3769 6883 c-13 -16 -12 -17 4 -4 16 13 21 21 13 21 -2 0 -10 -8 -17
-17z"/>
<path d="M6545 6870 c-4 -6 -3 -16 3 -22 6 -6 12 -6 17 2 4 6 3 16 -3 22 -6 6
-12 6 -17 -2z"/>
<path d="M7651 6856 c-10 -12 -6 -26 10 -26 11 0 19 29 10 35 -5 2 -14 -1 -20
-9z"/>
<path d="M5050 6756 c-41 -18 -133 -61 -205 -96 -294 -142 -529 -248 -937
-424 -141 -61 -257 -115 -258 -121 -2 -10 24 -22 550 -257 481 -215 934 -408
957 -408 23 0 333 145 973 457 146 70 308 149 362 173 69 32 93 48 87 57 -6 6
-65 34 -132 62 -339 139 -810 353 -1119 507 -92 46 -176 84 -185 83 -10 0 -52
-15 -93 -33z m-120 -216 c0 -5 -4 -10 -10 -10 -5 0 -10 5 -10 10 0 6 5 10 10
10 6 0 10 -4 10 -10z m270 -40 c0 -5 -4 -10 -10 -10 -5 0 -10 5 -10 10 0 6 5
10 10 10 6 0 10 -4 10 -10z m-393 -22 c-3 -8 -6 -5 -6 6 -1 11 2 17 5 13 3 -3
4 -12 1 -19z m-197 -68 c0 -5 -4 -10 -10 -10 -5 0 -10 5 -10 10 0 6 5 10 10
10 6 0 10 -4 10 -10z m960 -10 c0 -5 -4 -10 -10 -10 -5 0 -10 5 -10 10 0 6 5
10 10 10 6 0 10 -4 10 -10z m370 -50 c0 -5 -5 -10 -11 -10 -5 0 -7 5 -4 10 3
6 8 10 11 10 2 0 4 -4 4 -10z m-975 -90 c-3 -5 -11 -10 -16 -10 -6 0 -7 5 -4
10 3 6 11 10 16 10 6 0 7 -4 4 -10z m-715 -40 c0 -5 -2 -10 -4 -10 -3 0 -8 5
-11 10 -3 6 -1 10 4 10 6 0 11 -4 11 -10z m1058 -18 c2 -7 -3 -12 -12 -12 -9
0 -16 7 -16 16 0 17 22 14 28 -4z m-1078 -2 c0 -5 -4 -10 -10 -10 -5 0 -10 5
-10 10 0 6 5 10 10 10 6 0 10 -4 10 -10z m117 -47 c-3 -10 -5 -4 -5 12 0 17 2
24 5 18 2 -7 2 -21 0 -30z m533 17 c0 -5 -4 -10 -10 -10 -5 0 -10 5 -10 10 0
6 5 10 10 10 6 0 10 -4 10 -10z m270 -120 c-4 -3 -19 -27 -32 -55 l-26 -49
-30 47 c-27 43 -29 51 -18 75 6 15 20 45 31 68 l18 41 33 -61 c17 -34 29 -63
24 -66z m865 100 c3 -5 -1 -10 -10 -10 -9 0 -13 5 -10 10 3 6 8 10 10 10 2 0
7 -4 10 -10z m218 -21 c-8 -8 -13 -7 -18 2 -5 8 -4 10 3 5 7 -4 12 -2 12 5 0
7 3 9 7 6 4 -4 2 -12 -4 -18z m-2223 1 c0 -5 -6 -10 -14 -10 -8 0 -18 5 -21
10 -3 6 3 10 14 10 12 0 21 -4 21 -10z m1031 -31 c-5 -13 -10 -19 -10 -12 -1
15 10 45 15 40 3 -2 0 -15 -5 -28z m314 2 c3 -5 1 -12 -5 -16 -5 -3 -10 1 -10
9 0 18 6 21 15 7z m145 -12 c0 -5 -4 -9 -10 -9 -5 0 -10 7 -10 16 0 8 5 12 10
9 6 -3 10 -10 10 -16z m557 -65 c-3 -3 -12 -4 -19 -1 -8 3 -5 6 6 6 11 1 17
-2 13 -5z m-40 -10 c-3 -3 -12 -4 -19 -1 -8 3 -5 6 6 6 11 1 17 -2 13 -5z
m-530 -26 c-3 -8 -6 -5 -6 6 -1 11 2 17 5 13 3 -3 4 -12 1 -19z m323 -57 c0
-4 -3 -11 -7 -14 -8 -9 -34 13 -28 24 6 9 35 1 35 -10z m-360 -117 c0 -8 -4
-12 -10 -9 -5 3 -10 10 -10 16 0 5 5 9 10 9 6 0 10 -7 10 -16z m-890 -14 c0
-5 -4 -10 -10 -10 -5 0 -10 5 -10 10 0 6 5 10 10 10 6 0 10 -4 10 -10z m775 0
c3 -5 1 -10 -4 -10 -6 0 -11 5 -11 10 0 6 2 10 4 10 3 0 8 -4 11 -10z m-50
-190 c-3 -5 -10 -10 -16 -10 -5 0 -9 5 -9 10 0 6 7 10 16 10 8 0 12 -4 9 -10z"/>
<path d="M7283 6775 c-7 -8 -9 -16 -4 -19 5 -3 12 1 15 10 8 22 4 25 -11 9z"/>
<path d="M7665 6779 c-4 -6 -5 -12 -2 -15 2 -3 7 2 10 11 7 17 1 20 -8 4z"/>
<path d="M7300 6760 c0 -5 5 -10 10 -10 6 0 10 5 10 10 0 6 -4 10 -10 10 -5 0
-10 -4 -10 -10z"/>
<path d="M7260 6740 c0 -5 5 -10 11 -10 5 0 7 5 4 10 -3 6 -8 10 -11 10 -2 0
-4 -4 -4 -10z"/>
<path d="M5967 6733 c-14 -13 -7 -23 16 -22 12 0 16 3 9 6 -6 2 -10 9 -6 14 6
10 -9 12 -19 2z"/>
<path d="M3691 6714 c0 -11 3 -14 6 -6 3 7 2 16 -1 19 -3 4 -6 -2 -5 -13z"/>
<path d="M7665 6719 c-4 -6 -5 -12 -2 -15 2 -3 7 2 10 11 7 17 1 20 -8 4z"/>
<path d="M6446 6681 c-4 -6 -13 -8 -20 -5 -8 3 -17 1 -21 -5 -4 -7 4 -11 19
-11 24 0 44 16 33 26 -3 3 -8 1 -11 -5z"/>
<path d="M3885 6658 c2 -26 -16 -48 -39 -48 -9 0 -16 -9 -16 -21 0 -11 -4 -18
-8 -15 -5 3 -9 -1 -9 -9 0 -9 5 -11 16 -6 9 5 23 6 31 3 9 -3 -1 -10 -25 -16
-32 -9 -41 -17 -43 -38 -4 -33 24 -50 76 -46 l37 3 -3 100 c-2 55 -7 104 -11
108 -4 4 -7 -3 -6 -15z"/>
<path d="M4200 6671 c8 -6 12 -11 9 -11 -4 0 -1 -19 6 -42 16 -55 30 -51 30
10 0 45 -1 47 -30 50 -23 2 -27 0 -15 -7z"/>
<path d="M6338 6673 c6 -2 18 -2 25 0 6 3 1 5 -13 5 -14 0 -19 -2 -12 -5z"/>
<path d="M7850 6669 c0 -5 5 -7 10 -4 6 3 10 8 10 11 0 2 -4 4 -10 4 -5 0 -10
-5 -10 -11z"/>
<path d="M7578 6633 c7 -3 16 -2 19 1 4 3 -2 6 -13 5 -11 0 -14 -3 -6 -6z"/>
<path d="M4182 6610 c-7 -12 -18 -18 -25 -14 -7 4 -9 4 -5 -1 4 -4 3 -16 -3
-27 -7 -14 -7 -23 1 -33 9 -11 8 -22 -8 -47 -19 -31 -19 -35 -5 -62 14 -27 17
-28 28 -13 6 9 14 14 17 11 3 -3 14 5 24 18 11 13 29 30 41 39 l21 15 -20 24
c-11 14 -16 18 -12 10 4 -9 3 -12 -2 -7 -5 5 -9 16 -9 25 0 9 -7 17 -15 17 -8
0 -17 11 -18 24 -2 14 0 21 7 17 7 -4 8 -1 5 8 -8 20 -7 20 -22 -4z m9 -87
c13 -16 12 -17 -3 -4 -10 7 -18 15 -18 17 0 8 8 3 21 -13z m-9 -27 c7 4 8 2 4
-5 -9 -13 -26 -5 -25 12 0 9 2 8 6 -1 2 -6 10 -9 15 -6z m60 -8 c-7 -7 -12 -8
-12 -2 0 14 12 26 19 19 2 -3 -1 -11 -7 -17z m-89 -23 c-3 -9 -8 -14 -10 -11
-3 3 -2 9 2 15 9 16 15 13 8 -4z m47 -20 c-7 -9 -15 -13 -17 -11 -7 7 7 26 19
26 6 0 6 -6 -2 -15z"/>
<path d="M6105 6620 c-4 -6 -12 -10 -18 -9 -30 4 -38 -2 -35 -23 4 -32 37 -34
76 -4 32 23 33 25 14 35 -25 14 -29 14 -37 1z"/>
<path d="M6240 6620 c-21 -7 -21 -8 -5 -9 11 0 27 4 35 9 18 11 5 11 -30 0z"/>
<path d="M7383 6614 c-3 -8 -2 -19 4 -25 5 -5 9 1 11 16 2 28 -6 33 -15 9z"/>
<path d="M3500 6610 c0 -5 7 -10 16 -10 8 0 12 5 9 10 -3 6 -10 10 -16 10 -5
0 -9 -4 -9 -10z"/>
<path d="M7517 6603 c5 -12 3 -14 -8 -8 -8 5 -11 4 -6 0 4 -5 14 -10 22 -11
12 -2 12 2 5 17 -13 23 -22 25 -13 2z"/>
<path d="M7790 6605 c-10 -12 -10 -15 3 -15 19 0 31 16 18 24 -5 3 -14 -1 -21
-9z"/>
<path d="M3676 6541 c-17 -19 -24 -38 -25 -74 -1 -11 -6 -15 -13 -11 -7 4 -8
3 -4 -5 4 -6 11 -9 16 -6 5 3 18 -3 29 -14 19 -19 19 -18 35 18 11 25 13 47 8
70 -9 42 -23 48 -46 22z"/>
<path d="M3622 6525 c0 -16 2 -22 5 -12 2 9 2 23 0 30 -3 6 -5 -1 -5 -18z"/>
<path d="M2333 6505 c0 -8 4 -12 9 -9 5 3 6 10 3 15 -9 13 -12 11 -12 -6z"/>
<path d="M4267 6473 c-4 -3 -7 -11 -7 -17 0 -6 5 -4 11 4 9 12 10 11 6 -7 -5
-23 12 -33 46 -25 14 4 12 9 -15 28 -37 28 -33 26 -41 17z"/>
<path d="M3491 6389 c19 -16 47 -33 64 -39 l30 -10 -23 20 c-13 11 -21 23 -18
28 3 5 -15 14 -41 19 l-46 11 34 -29z"/>
<path d="M7060 6409 c-10 -5 -11 -9 -3 -9 7 0 10 -7 6 -17 -7 -19 -5 -18 15 9
15 19 3 31 -18 17z"/>
<path d="M3943 6397 c4 -10 2 -16 -5 -14 -7 1 -12 -2 -13 -8 0 -5 -12 -30 -25
-55 -13 -25 -24 -48 -25 -52 0 -4 -9 -14 -20 -23 -16 -13 -13 -13 12 1 36 20
93 101 93 132 0 12 -5 24 -12 28 -8 5 -9 2 -5 -9z"/>
<path d="M3791 6386 c-9 -11 -8 -15 4 -20 20 -7 58 11 50 25 -9 14 -41 11 -54
-5z"/>
<path d="M7095 6390 c-3 -5 1 -10 10 -10 9 0 13 5 10 10 -3 6 -8 10 -10 10 -2
0 -7 -4 -10 -10z"/>
<path d="M2792 6365 c-1 -11 5 -31 13 -45 9 -16 14 -19 15 -9 0 8 -4 19 -9 25
-5 5 -11 18 -14 29 l-5 20 0 -20z"/>
<path d="M2757 6341 c-20 -35 -21 -58 -4 -94 15 -34 30 -34 51 -2 19 29 4 34
-17 5 -14 -20 -14 -19 -25 6 -16 34 -15 55 4 82 9 13 14 25 12 27 -2 3 -12 -9
-21 -24z"/>
<path d="M7666 6340 c1 -39 10 -47 24 -21 7 14 7 21 0 21 -5 0 -9 5 -7 11 1 6
-2 13 -8 15 -5 2 -10 -10 -9 -26z"/>
<path d="M3321 6334 c0 -11 3 -14 6 -6 3 7 2 16 -1 19 -3 4 -6 -2 -5 -13z"/>
<path d="M7487 6333 c3 -7 6 -13 8 -13 2 0 5 6 8 13 3 8 -1 14 -8 14 -7 0 -11
-6 -8 -14z"/>
<path d="M3661 6318 c-1 -26 -21 -32 -36 -12 -21 28 -18 0 4 -44 10 -20 28
-46 40 -56 12 -11 21 -26 21 -34 0 -11 3 -12 15 -2 8 6 19 9 24 6 5 -4 12 -2
16 4 3 6 -9 25 -29 43 -19 18 -38 46 -41 63 -10 43 -13 51 -14 32z"/>
<path d="M3481 6313 c-23 -9 -71 -65 -64 -76 4 -6 -4 -7 -21 -3 -24 6 -27 4
-21 -14 4 -11 2 -21 -4 -21 -6 -1 -15 -2 -20 -3 -5 0 -13 -5 -18 -10 -5 -5 -2
-6 6 -1 9 5 12 4 7 -3 -10 -16 -36 -15 -36 1 0 9 -2 9 -8 0 -4 -7 -21 -10 -40
-8 -18 2 -44 0 -57 -5 -33 -12 -116 -100 -108 -113 4 -6 0 -8 -11 -4 -10 4
-15 3 -11 -3 3 -6 -1 -13 -10 -16 -9 -4 -14 -13 -10 -21 3 -10 1 -13 -8 -10
-16 6 -53 -56 -43 -72 4 -7 1 -8 -8 -5 -11 4 -16 0 -16 -14 0 -11 -6 -35 -14
-53 l-15 -34 -10 25 c-8 21 -9 17 -5 -20 4 -31 3 -41 -4 -31 -13 18 -21 -70
-10 -119 6 -29 25 -136 31 -175 1 -5 -4 -9 -10 -8 -7 2 -13 -2 -13 -7 0 -11
-22 -9 -31 3 -3 4 -17 -3 -31 -16 -24 -23 -27 -23 -52 -8 -14 9 -29 25 -32 36
-3 11 -16 28 -28 38 -11 10 -15 16 -8 12 6 -3 12 -2 12 3 0 25 -26 27 -49 5
-13 -13 -19 -24 -13 -24 33 -4 37 -6 35 -17 -2 -7 5 -12 15 -13 10 0 12 -3 4
-6 -6 -2 -10 -9 -7 -13 3 -5 12 -7 21 -3 9 3 14 0 12 -8 -2 -9 4 -13 15 -11
13 2 17 -4 17 -32 0 -38 -14 -55 -27 -32 -7 12 -10 12 -21 0 -9 -10 -9 -14 -1
-14 8 0 9 -4 0 -13 -6 -8 -8 -17 -4 -20 3 -4 1 -7 -5 -7 -6 0 -14 9 -17 21 -7
19 -7 20 -21 2 -18 -24 -18 -38 1 -23 13 11 14 10 10 -1 -7 -19 35 -20 54 -2
9 10 17 11 25 3 17 -14 29 0 14 17 -9 11 -7 15 10 20 12 3 22 10 22 16 0 6 9
1 21 -11 11 -12 25 -20 30 -16 6 3 9 -2 8 -12 -2 -11 0 -25 4 -31 5 -9 3 -13
-7 -13 -9 0 -16 -3 -17 -7 -3 -36 -19 -72 -19 -45 0 7 -5 12 -12 12 -6 0 -8
-3 -5 -7 4 -3 3 -11 -1 -17 -5 -7 -1 -18 10 -28 20 -20 25 -9 6 11 -11 10 -10
11 3 6 9 -3 22 1 29 10 9 11 16 12 25 5 9 -8 13 -7 12 2 -1 35 4 62 11 53 4
-5 18 -11 32 -13 24 -2 24 -2 5 12 -11 8 -17 18 -13 22 4 4 13 2 20 -4 7 -6
18 -11 23 -12 6 0 9 -12 7 -25 -2 -18 6 -33 29 -54 40 -37 36 -75 -8 -79 -15
-1 -30 -7 -31 -12 -2 -6 -11 -17 -19 -25 -10 -11 -13 -27 -9 -54 4 -30 1 -41
-10 -45 -23 -9 -26 -7 -19 7 4 6 -1 3 -9 -7 -11 -14 -16 -16 -16 -6 0 9 -6 6
-15 -7 -10 -14 -22 -20 -33 -17 -16 5 -16 5 1 -6 17 -11 24 -40 9 -40 -20 0
-44 -75 -46 -142 0 -9 -3 -15 -7 -12 -16 9 -26 -67 -24 -176 2 -121 30 -248
63 -280 13 -13 14 -13 8 0 -4 8 1 5 13 -8 l20 -22 4 22 4 23 2 -22 c0 -13 5
-23 10 -23 10 0 27 -39 23 -53 -1 -4 5 -10 14 -14 8 -3 20 -16 25 -29 4 -13
13 -24 19 -24 6 0 8 5 4 12 -4 7 -3 8 5 4 8 -6 9 -12 2 -20 -8 -9 -5 -19 9
-33 10 -12 16 -24 12 -27 -3 -4 1 -4 10 -1 17 7 18 20 3 45 -6 11 -3 11 11 -2
23 -20 40 -12 47 22 4 25 4 25 6 -2 1 -26 -27 -54 -43 -43 -3 3 -3 2 0 -2 3
-5 10 -9 15 -9 5 -1 10 -3 12 -4 1 -1 16 -3 32 -5 49 -4 51 -5 35 -15 -9 -6
-18 -6 -24 0 -16 16 -22 12 -22 -14 0 -14 4 -22 8 -20 5 3 6 10 3 15 -15 23
16 5 40 -23 15 -18 24 -27 20 -20 -10 19 23 14 35 -5 8 -15 10 -13 7 12 -2 17
-7 38 -12 48 -10 24 4 37 16 15 5 -10 8 -20 7 -22 -2 -2 7 -15 18 -28 12 -13
29 -38 38 -55 9 -18 23 -34 31 -34 32 -3 36 -4 43 -14 4 -5 14 -11 22 -13 9
-1 6 6 -9 18 -12 11 -26 18 -30 15 -4 -2 -8 2 -8 10 0 9 13 5 41 -14 59 -40
66 -43 66 -33 0 6 -22 24 -50 42 -54 34 -98 85 -121 138 -8 17 -18 32 -23 32
-5 0 -6 26 -4 57 4 46 10 61 33 80 15 13 34 22 42 19 8 -3 1 8 -16 25 -17 17
-31 38 -30 47 0 12 3 10 10 -6 5 -13 13 -21 17 -18 5 3 20 -6 32 -19 13 -14
28 -25 34 -25 6 0 4 5 -4 10 -9 6 -10 10 -3 10 6 0 18 -7 26 -15 8 -8 17 -11
21 -8 3 4 6 0 6 -7 0 -7 3 -11 6 -7 3 3 22 -10 41 -29 19 -19 37 -33 41 -30
13 8 4 309 -11 384 -19 93 -50 140 -135 202 -63 46 -67 48 -70 27 -14 -98 -37
-117 -40 -35 -2 50 -39 110 -85 139 -25 15 -46 19 -93 17 -46 -2 -60 0 -57 10
3 6 13 13 22 13 9 1 3 5 -14 8 -29 7 -28 8 17 15 26 5 53 4 60 0 13 -9 18 -10
39 -13 5 0 7 -5 4 -11 -3 -5 0 -7 8 -5 7 3 29 -5 49 -18 19 -13 49 -26 66 -29
31 -4 32 -4 14 15 -16 19 -16 20 0 14 12 -4 15 -2 12 8 -3 7 -15 12 -26 10
-11 -3 -18 -2 -15 2 4 3 -6 13 -22 22 -39 22 -61 41 -96 81 -16 19 -21 27 -10
18 11 -9 25 -17 30 -17 6 -1 10 -7 10 -13 0 -7 7 -13 15 -13 8 -1 14 -7 12
-13 -1 -7 4 -12 12 -10 8 2 22 -6 31 -17 9 -11 14 -15 11 -9 -7 14 55 -6 117
-38 65 -32 138 -89 130 -100 -3 -6 -1 -8 5 -4 6 3 19 -4 29 -17 10 -12 47 -35
83 -50 36 -16 74 -33 85 -39 12 -6 7 3 -13 24 -18 19 -29 37 -26 41 4 4 0 7
-9 7 -9 0 -21 9 -27 20 -6 11 -15 20 -21 20 -14 0 -83 50 -134 96 l-40 36 87
-46 c48 -25 101 -46 118 -46 34 0 195 -36 218 -49 9 -5 17 -16 18 -25 1 -9 -2
-14 -7 -10 -5 3 -7 9 -5 13 3 4 -14 8 -37 9 -23 1 -52 3 -64 6 -32 7 -47 -23
-25 -48 13 -15 14 -18 2 -12 -8 4 -6 0 4 -8 11 -9 23 -16 28 -16 4 0 8 -5 8
-11 0 -18 37 -59 45 -51 5 4 5 2 1 -5 -3 -6 -2 -14 4 -18 6 -4 8 -10 5 -15 -3
-4 7 -23 21 -42 14 -18 6 -11 -19 17 -25 27 -43 53 -41 57 3 4 -1 5 -9 2 -8
-3 -18 0 -22 5 -11 18 -75 41 -114 41 -20 0 -54 10 -76 22 -41 22 -224 98
-234 98 -3 0 2 -5 12 -11 9 -6 15 -14 12 -19 -5 -8 19 -22 40 -24 6 -1 10 -8
10 -16 0 -9 8 -14 20 -12 14 2 16 0 7 -6 -10 -6 -8 -13 8 -27 11 -10 20 -14
20 -10 0 4 9 0 20 -10 11 -10 20 -15 20 -11 0 4 16 -13 35 -38 19 -26 35 -50
35 -55 0 -5 7 -14 15 -21 8 -7 15 -22 15 -34 0 -12 7 -31 15 -42 8 -12 11 -25
7 -29 -4 -3 0 -5 8 -3 9 2 16 -6 18 -19 3 -22 14 -28 37 -23 5 1 7 -2 2 -6 -9
-9 51 -74 69 -74 16 0 64 -61 57 -73 -4 -6 0 -8 9 -4 9 3 23 -2 31 -11 15 -17
17 -21 17 -43 0 -8 4 -8 14 0 11 9 16 9 22 0 5 -8 3 -9 -6 -4 -10 6 -12 4 -6
-11 4 -10 9 -26 11 -36 6 -26 34 -76 71 -125 19 -24 34 -50 34 -58 0 -15 24
-37 33 -29 3 3 1 18 -4 33 -9 25 -9 25 7 6 9 -11 29 -48 45 -82 15 -35 31 -63
34 -63 3 0 5 27 5 59 l0 59 -49 31 c-54 33 -67 55 -52 92 5 13 10 19 10 13 1
-6 11 -23 24 -37 12 -14 31 -37 42 -51 11 -15 31 -31 45 -37 14 -7 20 -13 13
-16 -12 -4 -10 -15 20 -83 6 -14 11 -28 11 -32 1 -5 6 -8 11 -9 6 0 16 -5 23
-11 6 -6 12 -7 12 -3 0 4 7 2 15 -5 24 -20 18 5 -9 37 -38 46 -44 65 -36 113
4 25 8 39 9 31 1 -11 4 -11 18 0 9 8 14 9 10 3 -7 -13 21 -56 33 -49 4 3 11
-5 15 -18 5 -16 8 -18 12 -7 3 8 16 23 27 33 12 10 16 16 9 13 -6 -4 -10 1 -9
11 2 9 9 17 17 19 8 1 23 6 33 10 16 6 18 4 14 -13 -5 -18 -2 -21 18 -17 12 2
26 0 29 -6 4 -6 11 -7 17 -4 6 4 8 2 5 -4 -11 -17 3 -44 17 -33 6 5 18 6 25 2
9 -6 10 -11 2 -15 -6 -4 -11 -2 -11 4 0 6 -5 8 -11 5 -12 -8 14 -40 44 -57 14
-7 24 -5 40 9 15 12 18 13 9 2 -6 -9 -8 -20 -4 -24 4 -5 2 -5 -4 -2 -7 4 -18
-1 -25 -10 -8 -9 -9 -14 -3 -10 6 3 21 -4 33 -17 22 -23 43 -28 57 -13 4 4 16
0 26 -10 10 -9 18 -12 18 -8 0 4 9 0 20 -10 16 -15 18 -21 7 -33 -10 -13 -9
-14 9 -4 12 6 25 8 29 4 4 -4 4 7 1 24 -6 28 -5 31 19 30 14 -1 33 -10 43 -21
16 -19 16 -19 -8 0 -21 17 -21 15 4 -12 29 -32 29 -33 11 -53 -10 -11 -24 -19
-31 -16 -8 3 -11 -2 -9 -14 2 -10 -4 -25 -13 -32 -9 -7 -13 -8 -9 -2 4 7 0 14
-8 18 -8 3 -14 0 -12 -6 4 -20 51 -56 77 -60 14 -2 24 -9 23 -15 -1 -6 5 -10
15 -8 9 2 19 4 21 4 2 1 -4 10 -14 21 -10 11 -21 18 -24 15 -4 -2 -7 19 -6 47
1 37 6 54 20 64 16 12 20 12 28 -1 7 -14 11 -14 25 -3 11 9 9 2 -6 -23 -19
-31 -20 -38 -8 -48 8 -7 12 -21 9 -31 -8 -28 17 -84 30 -71 8 8 15 2 24 -20 8
-20 17 -28 25 -23 10 5 10 4 1 -6 -10 -11 -10 -17 3 -31 8 -9 17 -23 19 -31
10 -41 19 -58 30 -58 8 0 22 -11 33 -25 l20 -25 7 173 c3 94 5 543 3 996 l-3
824 -160 69 c-384 166 -1051 464 -1332 594 -46 21 -83 42 -83 45 0 4 35 22 78
39 44 18 63 29 44 26 -31 -5 -34 -3 -52 37 -11 23 -20 56 -20 73 0 16 -5 35
-12 42 -12 12 -62 15 -87 5z m42 -312 c-21 -15 -42 -61 -36 -78 6 -15 4 -16
-9 -5 -13 10 -17 10 -21 -2 -4 -9 -2 -18 3 -21 6 -4 10 -16 10 -29 0 -12 6
-28 13 -36 6 -7 -2 -3 -20 9 -102 70 -97 167 9 173 25 2 46 5 46 8 0 3 1 14 2
25 2 14 4 11 7 -9 3 -16 1 -32 -4 -35z m503 -374 c-2 -7 -5 -4 -5 6 -1 9 -5
17 -9 17 -4 0 -8 10 -9 23 -2 20 0 19 13 -6 9 -16 13 -34 10 -40z m-22 1 c-2
-3 0 -9 6 -13 7 -4 6 -13 -1 -28 -17 -32 -17 -32 -38 -6 -24 28 -25 39 -9 74
l12 26 17 -23 c10 -12 15 -26 13 -30z m-237 0 c-3 -8 -6 -5 -6 6 -1 11 2 17 5
13 3 -3 4 -12 1 -19z m18 -88 c3 -6 -1 -13 -10 -16 -19 -8 -30 0 -20 15 8 14
22 14 30 1z m-95 -74 c0 -3 -4 -8 -10 -11 -5 -3 -10 -1 -10 4 0 6 5 11 10 11
6 0 10 -2 10 -4z m445 -89 l27 -69 -28 -30 c-25 -25 -29 -37 -27 -79 1 -62
-10 -55 -38 22 -12 33 -26 62 -30 65 -5 3 7 28 26 57 20 30 35 64 35 81 0 38
2 35 35 -47z m-1295 49 c0 -3 -4 -8 -10 -11 -5 -3 -10 -1 -10 4 0 6 5 11 10
11 6 0 10 -2 10 -4z m380 -156 c6 -4 10 -11 9 -16 -3 -19 2 -28 10 -16 6 10
10 10 21 -3 11 -13 10 -15 -8 -12 -21 3 -52 25 -50 35 2 22 -3 32 -14 26 -7
-4 -10 -4 -6 1 4 4 -4 29 -17 56 -38 73 -29 73 10 0 19 -36 40 -68 45 -71z
m540 74 c0 -19 -28 -30 -42 -16 -8 8 -8 15 1 26 14 17 41 10 41 -10z m640 -50
c0 -8 -5 -12 -10 -9 -6 4 -8 11 -5 16 9 14 15 11 15 -7z m-597 -24 c3 -11 1
-18 -4 -14 -5 3 -9 12 -9 20 0 20 7 17 13 -6z m-683 -43 c0 -18 -15 -17 -15 1
0 4 -4 13 -8 19 -6 9 -3 11 7 7 9 -3 16 -15 16 -27z m31 4 c7 11 9 11 9 1 0
-7 5 -10 12 -6 6 4 8 3 5 -4 -9 -13 -40 -9 -43 7 -2 8 -1 8 3 0 4 -8 8 -7 14
2z m257 -33 c-2 -6 -10 -13 -16 -14 -7 -1 -8 0 -2 3 5 2 8 9 4 14 -3 5 0 9 6
9 7 0 10 -5 8 -12z m1592 3 c0 -6 -9 -9 -20 -8 -11 1 -20 5 -20 9 0 4 9 8 20
8 11 0 20 -4 20 -9z m-1539 -78 c-12 -20 -14 -14 -5 12 4 9 9 14 11 11 3 -2 0
-13 -6 -23z m964 -3 c-5 -8 -11 -8 -17 -2 -6 6 -7 16 -3 22 5 8 11 8 17 2 6
-6 7 -16 3 -22z m-1365 1 c0 -10 -6 -21 -14 -24 -9 -4 -13 0 -11 11 2 9 4 20
4 25 2 16 21 6 21 -12z m890 -37 c0 -2 -9 -4 -20 -4 -11 0 -20 4 -20 9 0 5 9
7 20 4 11 -3 20 -7 20 -9z m-60 -1 c-8 -3 -24 -10 -35 -15 -20 -9 -20 -9 -1 6
11 9 27 16 35 15 14 0 14 -1 1 -6z m-180 -21 c8 -4 16 -12 17 -19 3 -13 -22
-12 -34 2 -5 4 -1 5 7 0 8 -5 12 -4 7 0 -4 5 -15 10 -24 11 -12 2 -13 0 -4 -9
16 -16 14 -25 -10 -37 -19 -10 -20 -10 -10 9 12 22 -1 37 -20 25 -8 -4 -8 -9
-1 -13 7 -4 8 -12 2 -21 -8 -12 -10 -12 -16 3 -14 37 42 69 86 49z m860 -2 c0
-5 -5 -10 -11 -10 -5 0 -7 5 -4 10 3 6 8 10 11 10 2 0 4 -4 4 -10z m-326 -36
c3 -8 2 -12 -4 -9 -6 3 -10 10 -10 16 0 14 7 11 14 -7z m-620 -69 c3 -8 1 -15
-4 -15 -6 0 -10 7 -10 15 0 8 2 15 4 15 2 0 6 -7 10 -15z m-534 1 c0 -2 -7 -7
-16 -10 -8 -3 -12 -2 -9 4 6 10 25 14 25 6z m1065 -44 c-3 -3 -11 0 -18 7 -9
10 -8 11 6 5 10 -3 15 -9 12 -12z m540 8 c3 -5 1 -10 -4 -10 -6 0 -11 5 -11
10 0 6 2 10 4 10 3 0 8 -4 11 -10z m-611 -36 c5 -14 4 -15 -9 -4 -17 14 -19
20 -6 20 5 0 12 -7 15 -16z m-163 -41 c13 -16 12 -17 -3 -4 -17 13 -22 21 -14
21 2 0 10 -8 17 -17z m-734 -69 c-3 -3 -12 -4 -19 -1 -8 3 -5 6 6 6 11 1 17
-2 13 -5z m828 -64 l6 -29 28 32 28 31 17 -32 c18 -35 20 -46 7 -38 -13 9 -7
-19 8 -38 7 -9 10 -16 6 -16 -4 0 -2 -6 4 -13 7 -10 8 -22 0 -43 -16 -41 2
-83 39 -90 18 -4 32 -16 41 -35 7 -15 26 -43 42 -60 16 -17 29 -34 29 -36 0
-3 8 -12 18 -20 12 -10 8 -10 -15 2 -18 8 -47 28 -65 44 -28 24 -44 29 -100
33 -53 3 -73 9 -92 27 -31 29 -61 104 -51 128 3 10 6 63 6 117 -1 98 -1 99 18
82 11 -10 23 -31 26 -46z m515 46 c0 -3 -4 -8 -10 -11 -5 -3 -10 -1 -10 4 0 6
5 11 10 11 6 0 10 -2 10 -4z m-1703 -38 c-3 -8 -6 -5 -6 6 -1 11 2 17 5 13 3
-3 4 -12 1 -19z m1438 1 c10 -30 2 -32 -12 -3 -6 13 -7 24 -3 24 5 0 12 -9 15
-21z m118 -20 c4 -16 3 -18 -9 -8 -7 6 -11 15 -8 20 8 13 11 11 17 -12z m-708
-9 c3 -6 -1 -7 -9 -4 -18 7 -21 14 -7 14 6 0 13 -4 16 -10z m1175 -13 c0 -14
-20 -37 -32 -37 -4 0 -2 11 4 25 12 27 28 34 28 12z m-713 -39 c-13 -8 -39 10
-31 23 3 5 14 3 24 -3 13 -9 16 -14 7 -20z m226 -22 c9 -7 17 -24 17 -37 l-1
-24 -24 28 c-37 41 -32 63 8 33z m-437 -38 l29 -33 -32 29 c-31 28 -38 36 -30
36 2 0 16 -15 33 -32z m-953 -13 c-3 -13 2 -45 11 -71 17 -50 23 -149 6 -108
-14 36 -34 170 -27 187 9 25 15 20 10 -8z m1843 -33 c8 -18 13 -36 10 -41 -3
-4 1 -17 9 -27 15 -18 15 -18 8 1 -6 16 0 15 29 -10 37 -32 89 -149 61 -138
-9 4 -19 -9 -30 -36 -14 -37 -18 -40 -32 -27 -9 8 -20 16 -26 18 -6 2 -10 40
-10 88 0 65 -3 84 -13 82 -8 -1 -11 2 -8 7 11 16 -15 73 -31 67 -8 -3 -12 -2
-9 3 3 5 -2 12 -11 15 -14 6 -13 10 8 32 16 17 25 21 27 12 2 -7 10 -28 18
-46z m-201 -40 c-3 -3 -11 0 -18 7 -9 10 -8 11 6 5 10 -3 15 -9 12 -12z m320
-2 c3 -6 -1 -7 -9 -4 -18 7 -21 14 -7 14 6 0 13 -4 16 -10z m-210 -10 c3 -5 1
-10 -4 -10 -6 0 -11 5 -11 10 0 6 2 10 4 10 3 0 8 -4 11 -10z m-328 -22 c-3
-8 -6 -5 -6 6 -1 11 2 17 5 13 3 -3 4 -12 1 -19z m240 -3 c0 -8 -4 -12 -9 -9
-5 3 -6 10 -3 15 9 13 12 11 12 -6z m300 -32 c-3 -10 -5 -4 -5 12 0 17 2 24 5
18 2 -7 2 -21 0 -30z m-293 -17 c-1 -9 2 -16 7 -16 5 0 9 -8 9 -17 0 -13 -2
-15 -8 -5 -5 7 -17 10 -28 6 -14 -4 -16 -3 -5 4 8 6 10 15 6 22 -5 9 -4 11 3
6 7 -4 12 -3 12 3 0 5 -5 12 -10 14 -6 3 -5 4 2 3 7 -2 12 -11 12 -20z m-1479
4 c3 -5 1 -10 -4 -10 -6 0 -11 5 -11 10 0 6 2 10 4 10 3 0 8 -4 11 -10z m1370
0 c3 -6 -1 -7 -9 -4 -18 7 -21 14 -7 14 6 0 13 -4 16 -10z m-573 -50 c4 0 8
-6 8 -12 -1 -7 -10 -2 -20 11 -11 13 -20 28 -19 35 0 6 5 1 11 -11 6 -13 15
-23 20 -23z m209 7 c-10 -9 -11 -8 -5 6 3 10 9 15 12 12 3 -3 0 -11 -7 -18z
m593 -7 c4 0 4 5 0 12 -5 7 -3 8 5 4 7 -5 10 -11 7 -14 -3 -3 -2 -10 4 -16 6
-8 3 -12 -11 -13 -11 -1 -19 5 -19 13 0 8 -4 13 -9 9 -5 -3 -13 0 -17 6 -5 8
-3 9 6 4 10 -6 12 -3 7 11 -7 18 -6 18 7 2 7 -10 16 -18 20 -18z m-711 3 c-7
-2 -13 -10 -13 -15 0 -6 3 -8 7 -5 3 4 12 2 20 -4 10 -9 11 -15 1 -26 -14 -18
-20 -45 -8 -38 5 3 21 -13 37 -35 15 -22 32 -40 36 -40 8 0 21 -10 52 -38 9
-8 12 -19 9 -25 -5 -8 -2 -8 7 1 17 16 32 15 26 -2 -3 -8 1 -13 11 -12 9 0 18
-7 20 -16 2 -10 0 -18 -5 -18 -18 0 -113 61 -108 69 2 5 -3 8 -13 7 -9 0 -16
5 -14 12 1 8 -2 11 -8 7 -14 -9 -42 14 -33 28 3 6 1 7 -6 3 -16 -10 -43 13
-37 31 3 8 1 11 -4 8 -13 -8 -13 71 0 96 6 10 16 19 23 18 9 0 9 -2 0 -6z
m765 -29 c-4 -3 -12 5 -18 18 -12 22 -12 22 6 6 10 -10 15 -20 12 -24z m-819
-8 c9 -11 9 -16 -1 -22 -7 -4 -10 -4 -6 1 4 4 3 14 -3 22 -6 7 -9 13 -6 13 2
0 10 -6 16 -14z m724 -4 c-21 -22 -26 -21 -17 2 3 9 12 16 20 16 11 0 10 -4
-3 -18z m274 -14 c-3 -8 -6 -5 -6 6 -1 11 2 17 5 13 3 -3 4 -12 1 -19z m-370
-14 c2 -6 -3 -11 -12 -11 -8 0 -15 7 -15 15 0 15 22 12 27 -4z m-132 -14 c10
-11 22 -17 28 -13 6 3 7 1 3 -6 -4 -6 -12 -8 -18 -5 -8 5 -9 1 -5 -10 4 -10 3
-15 -3 -11 -6 3 -11 16 -11 28 -1 17 -2 18 -6 5 -5 -21 -19 -23 -29 -6 -4 6
-3 8 3 5 6 -4 13 0 16 7 4 10 -2 16 -16 19 -21 4 -21 4 -1 6 11 0 29 -8 39
-19z m221 -11 c1 -5 2 -13 3 -19 0 -5 8 -7 16 -4 10 4 15 0 15 -11 0 -9 5 -13
10 -10 6 4 7 12 4 18 -4 7 -4 9 1 5 4 -4 16 3 26 15 19 22 19 22 2 -10 -10
-18 -23 -35 -30 -37 -18 -7 -53 25 -58 53 -2 13 -1 20 3 17 4 -4 8 -12 8 -17z
m-1716 6 c0 -2 -6 -8 -13 -14 -10 -8 -14 -7 -14 2 0 8 6 14 14 14 7 0 13 -1
13 -2z m1424 -13 c3 -5 -1 -9 -9 -9 -8 0 -12 4 -9 9 3 4 7 8 9 8 2 0 6 -4 9
-8z m-10 -34 c-3 -4 -9 -8 -15 -8 -5 0 -9 4 -9 8 0 5 7 9 15 9 8 0 12 -4 9 -9z
m210 -14 c5 -14 4 -15 -9 -4 -17 14 -19 20 -6 20 5 0 12 -7 15 -16z m-63 -11
c13 -16 12 -17 -3 -4 -10 7 -18 15 -18 17 0 8 8 3 21 -13z m319 3 c0 -2 -7 -7
-16 -10 -8 -3 -12 -2 -9 4 6 10 25 14 25 6z m-257 -25 c-4 -3 -10 -10 -14 -14
-3 -4 -11 -2 -17 5 -8 10 -5 13 15 14 13 1 21 -1 16 -5z m133 -3 c4 -7 3 -8
-4 -4 -7 4 -12 0 -12 -10 0 -10 -3 -15 -6 -11 -7 6 2 37 10 37 3 0 8 -5 12
-12z m-46 -9 c0 -4 -5 -11 -10 -14 -6 -4 -7 -12 -4 -18 4 -7 3 -9 -1 -4 -15
14 -15 44 0 44 8 0 15 -4 15 -8z m-64 -25 c2 -12 -1 -13 -12 -3 -7 6 -11 16
-8 21 7 11 17 3 20 -18z m103 -21 c2 -2 -5 -3 -17 -3 -14 0 -22 6 -22 16 0 14
3 15 18 3 9 -7 19 -15 21 -16z m-80 -6 c-9 -7 -14 -18 -12 -24 3 -7 0 -13 -7
-13 -6 0 -8 -4 -5 -10 11 -19 -5 -31 -26 -19 -19 9 -23 31 -6 30 3 0 18 11 31
24 14 14 29 25 33 25 4 0 1 -6 -8 -13z m-274 -24 c-2 -10 -4 -19 -4 -21 -1 -2
-6 0 -11 3 -8 5 -7 11 1 21 15 18 18 18 14 -3z m316 3 c-1 -4 10 -17 25 -29
l26 -23 -24 -3 c-59 -7 -71 -6 -73 10 -2 9 1 22 5 29 10 16 33 2 26 -16 -3 -7
0 -16 5 -20 7 -4 9 6 6 30 -3 21 -3 35 0 32 2 -2 4 -7 4 -10z m-1507 -25 c-2
-3 -12 3 -22 13 -16 17 -16 18 5 5 12 -7 20 -15 17 -18z m1320 -49 c3 -5 -1
-9 -9 -9 -8 0 -12 4 -9 9 3 4 7 8 9 8 2 0 6 -4 9 -8z m273 -14 c-3 -8 -6 -5
-6 6 -1 11 2 17 5 13 3 -3 4 -12 1 -19z m-84 -10 c17 1 22 -9 10 -21 -3 -4
-12 -2 -19 4 -10 9 -15 7 -20 -5 -5 -13 -8 -13 -20 -1 -21 21 -17 35 9 28 12
-2 30 -5 40 -5z m102 -7 c-3 -6 -11 -11 -16 -11 -5 0 -4 6 3 14 14 16 24 13
13 -3z m-235 -53 c0 -14 -18 -9 -24 8 -11 28 -6 39 9 20 8 -11 15 -23 15 -28z
m170 34 c0 -4 -5 -13 -12 -20 -9 -9 -7 -12 11 -12 20 0 21 -1 7 -16 -19 -18
-19 -21 -4 -30 7 -5 8 -3 3 6 -5 8 -3 11 6 8 8 -3 15 -14 17 -25 2 -16 -1 -21
-15 -18 -10 2 -22 4 -26 4 -5 1 -5 6 -2 12 9 14 -34 60 -49 53 -6 -3 3 6 19
20 31 27 45 32 45 18z m62 -32 c-2 -16 -6 -30 -8 -30 -2 0 -4 14 -4 30 0 17 4
30 8 30 5 0 7 -13 4 -30z m38 -21 c0 6 4 11 10 11 15 0 1 -28 -18 -35 -9 -3
-13 -3 -9 1 4 4 1 14 -6 23 -11 14 -10 14 6 2 11 -9 17 -10 17 -2z m40 -8 c-5
-11 -15 -23 -21 -27 -6 -3 -3 5 6 20 20 30 30 35 15 7z m102 -14 c-7 -8 -9
-16 -6 -19 3 -3 1 -9 -5 -13 -7 -4 -11 4 -11 20 0 17 4 24 12 19 8 -5 9 -1 4
12 -6 15 -5 16 5 7 9 -9 9 -16 1 -26z m-746 14 c-4 -5 0 -11 6 -14 7 -3 3 -4
-9 -4 -17 1 -19 4 -11 14 12 15 22 18 14 4z m421 -16 c0 -8 -4 -12 -9 -9 -5 3
-6 10 -3 15 9 13 12 11 12 -6z m223 -75 c0 -5 -5 -10 -11 -10 -5 0 -7 5 -4 10
3 6 8 10 11 10 2 0 4 -4 4 -10z m91 -7 c13 -16 12 -17 -3 -5 -9 8 -23 10 -29
6 -8 -4 -9 -3 -5 4 10 17 21 15 37 -5z m-15 -118 c0 -17 -3 -21 -11 -15 -7 6
-14 8 -16 5 -3 -2 -5 4 -5 14 0 9 7 18 16 18 11 1 16 -7 16 -22z"/>
<path d="M4059 4713 c-13 -16 -12 -17 4 -4 16 13 21 21 13 21 -2 0 -10 -8 -17
-17z"/>
<path d="M4010 4576 c0 -2 8 -10 18 -17 15 -13 16 -12 3 4 -13 16 -21 21 -21
13z"/>
<path d="M4040 4533 c0 -6 8 -17 18 -24 16 -13 16 -13 2 6 -8 11 -16 22 -17
24 -2 2 -3 0 -3 -6z"/>
<path d="M4864 4293 c2 -10 6 -17 10 -16 15 3 16 11 2 22 -12 10 -14 9 -12 -6z"/>
<path d="M4046 4331 c-4 -5 -2 -12 3 -15 5 -4 12 -2 15 3 4 5 2 12 -3 15 -5 4
-12 2 -15 -3z"/>
<path d="M4625 4060 c3 -5 8 -10 11 -10 2 0 4 5 4 10 0 6 -5 10 -11 10 -5 0
-7 -4 -4 -10z"/>
<path d="M3970 6280 c-9 -6 -10 -10 -3 -10 6 0 15 5 18 10 8 12 4 12 -15 0z"/>
<path d="M7464 6266 c-17 -19 -24 -45 -12 -52 5 -4 14 -1 18 6 5 8 14 3 29
-18 13 -19 17 -33 11 -37 -5 -3 -10 -3 -10 1 0 3 -7 1 -15 -6 -8 -7 -15 -20
-15 -29 1 -14 2 -13 11 2 8 14 14 16 25 6 7 -6 11 -16 7 -23 -4 -6 1 -5 10 3
12 9 17 10 17 2 0 -7 5 -9 12 -5 6 4 8 3 5 -3 -3 -5 0 -21 7 -35 16 -31 4 -58
-23 -51 -13 3 -17 11 -13 26 5 20 4 21 -12 8 -14 -12 -15 -16 -3 -30 12 -14
11 -19 -5 -33 -17 -17 -18 -17 -18 1 0 10 -8 22 -17 26 -15 5 -16 4 -5 -6 6
-7 12 -18 12 -23 0 -6 -4 -4 -10 4 -13 21 -24 5 -11 -17 6 -10 11 -14 11 -10
0 5 8 1 18 -9 16 -16 17 -16 20 -1 4 22 21 22 29 0 4 -10 13 -22 20 -28 17
-13 6 -55 -13 -48 -9 3 -14 -2 -14 -13 -1 -17 -3 -16 -22 6 -20 24 -20 24 -14
3 5 -15 3 -23 -4 -23 -6 0 -8 -5 -5 -10 4 -6 11 -8 16 -5 5 4 9 0 9 -7 0 -8 3
-9 8 -3 10 16 72 58 72 49 0 -3 6 -2 13 4 8 7 18 7 27 2 8 -5 25 -7 37 -3 15
3 23 1 23 -8 1 -11 4 -10 13 2 7 9 19 14 27 12 10 -3 9 0 -3 7 -9 6 -21 9 -26
6 -5 -3 -21 5 -36 18 -16 14 -23 26 -17 30 6 4 9 13 6 21 -4 8 -10 13 -15 10
-4 -3 -6 4 -4 16 3 13 1 27 -4 33 -10 13 -2 78 9 71 4 -3 11 3 14 12 8 19 -8
40 -18 24 -11 -17 -26 -13 -19 6 5 11 3 14 -6 8 -10 -6 -11 -3 -2 12 7 14 7
24 -2 33 -7 7 -7 10 -2 7 6 -3 19 1 30 9 16 12 17 14 2 14 -9 0 -16 3 -16 8 3
19 -3 22 -22 12 -16 -9 -24 -8 -37 7 -18 19 -39 23 -61 9 -8 -5 -16 -4 -20 2
-4 6 -10 6 -17 -2z m149 -31 c-3 -9 -8 -14 -10 -11 -3 3 -2 9 2 15 9 16 15 13
8 -4z m1 -180 c-4 -8 -8 -15 -10 -15 -2 0 -4 7 -4 15 0 8 4 15 10 15 5 0 7 -7
4 -15z m46 -155 c0 -5 -2 -10 -4 -10 -3 0 -8 5 -11 10 -3 6 -1 10 4 10 6 0 11
-4 11 -10z"/>
<path d="M3188 6233 c7 -3 16 -2 19 1 4 3 -2 6 -13 5 -11 0 -14 -3 -6 -6z"/>
<path d="M7700 6231 c0 -6 4 -12 8 -15 5 -3 9 1 9 9 0 8 -4 15 -9 15 -4 0 -8
-4 -8 -9z"/>
<path d="M3079 6173 l-34 -38 38 34 c20 19 37 36 37 38 0 8 -8 0 -41 -34z"/>
<path d="M2829 6163 c-13 -15 -12 -15 9 -4 23 12 28 21 13 21 -5 0 -15 -7 -22
-17z"/>
<path d="M7776 6088 c5 -8 2 -9 -9 -5 -10 3 -17 2 -17 -3 0 -5 11 -9 24 -8 19
2 22 5 14 15 -13 16 -22 17 -12 1z"/>
<path d="M6661 6083 c-30 -12 -1462 -701 -1467 -706 -2 -1 -6 -426 -9 -942 -3
-517 -3 -935 1 -928 3 7 12 9 21 6 11 -4 14 -2 11 8 -5 15 16 41 29 37 4 -1
21 10 37 25 16 15 25 27 20 27 -5 0 -2 5 6 10 8 5 10 10 4 10 -6 0 -11 7 -11
15 0 17 14 20 19 5 2 -6 13 -12 26 -15 12 -2 20 0 17 5 -6 10 64 62 75 55 3
-2 12 12 19 31 8 22 17 32 24 27 7 -3 3 4 -8 16 -14 16 -15 22 -5 19 9 -2 18
9 24 29 7 21 16 32 25 30 9 -1 16 5 16 13 0 8 6 16 13 16 6 1 17 2 22 3 6 0 8
12 6 26 -3 15 0 24 6 22 7 -1 15 17 19 40 8 44 46 106 60 97 4 -2 11 1 15 7 4
8 3 9 -4 5 -22 -13 -11 9 23 49 29 33 37 37 45 25 13 -21 13 -43 -2 -34 -6 4
-8 3 -4 -4 3 -5 1 -12 -5 -14 -7 -2 -5 -16 9 -41 18 -34 21 -36 33 -20 12 14
12 16 0 8 -11 -6 -13 -4 -8 9 4 10 7 20 7 22 0 3 6 2 13 -2 9 -6 9 -4 -1 8 -9
11 -10 18 -2 23 15 10 12 28 -4 22 -22 -9 -33 33 -13 45 9 5 23 16 32 24 15
15 14 18 -12 31 -40 21 -43 25 -29 52 11 20 14 21 19 7 4 -10 3 -15 -3 -11 -6
3 -10 1 -10 -4 0 -6 5 -11 10 -11 6 0 9 -5 8 -11 -2 -6 5 -13 15 -14 11 -2 16
-1 13 2 -3 4 -1 12 5 19 7 8 7 14 -1 19 -6 4 -9 3 -8 -2 2 -4 -1 -9 -7 -10
-10 -2 -11 16 -4 47 2 8 -2 14 -9 12 -13 -2 -12 19 2 30 5 3 20 2 33 -3 16 -6
22 -5 20 4 -1 7 3 11 9 10 7 -1 10 7 8 20 -2 12 -2 17 2 10 9 -20 81 10 86 36
2 10 14 15 33 16 25 0 33 7 52 45 27 55 28 88 6 135 -16 34 -16 36 5 58 12 13
22 33 22 44 0 29 -18 76 -33 85 -19 12 -57 9 -63 -5 -3 -10 -18 -13 -46 -10
-39 4 -41 3 -27 -14 13 -17 13 -17 -5 -3 -14 11 -20 12 -23 3 -2 -7 -11 -9
-19 -6 -14 5 -46 -25 -39 -37 2 -3 -7 -6 -21 -6 -13 0 -24 4 -24 9 0 5 -8 3
-17 -4 -13 -10 -13 -8 2 10 28 33 71 62 94 64 11 0 18 4 16 8 -7 10 27 36 68
50 29 10 46 11 80 2 56 -15 133 2 154 34 8 12 50 41 92 64 59 31 82 51 103 84
20 34 36 47 67 56 50 15 49 14 92 113 46 106 59 114 188 108 l99 -5 -4 29 c-8
63 -2 129 11 141 4 5 4 1 0 -7 -5 -8 6 -2 25 14 19 16 34 34 32 39 -2 5 3 7
11 4 7 -3 14 1 14 8 0 8 -7 11 -15 7 -10 -3 -13 -1 -8 6 5 8 2 10 -8 6 -12 -4
-13 -11 -6 -24 7 -13 6 -20 -5 -24 -9 -3 -15 0 -15 9 0 8 -4 15 -8 15 -17 0
-21 -13 -10 -34 l11 -21 -23 20 c-13 11 -20 14 -16 8 4 -7 2 -13 -4 -13 -6 0
-8 -5 -4 -12 6 -10 4 -10 -8 0 -13 10 -17 10 -21 -2 -3 -8 -19 -17 -36 -21
-20 -4 -29 -11 -24 -18 4 -7 -2 -5 -12 3 -10 8 -16 10 -12 4 10 -17 -13 -23
-102 -25 -45 -1 -81 -5 -81 -10 0 -4 -23 -18 -51 -30 -45 -21 -82 -61 -78 -86
1 -4 0 -10 -1 -13 -1 -3 -4 -16 -5 -30 -1 -14 -5 -34 -10 -45 -4 -11 -3 -15 2
-9 4 6 18 7 33 3 l25 -7 -27 -1 c-15 -1 -30 -6 -33 -11 -7 -12 -17 -66 -17
-93 1 -9 -3 -15 -8 -12 -4 3 -11 -2 -14 -11 -4 -10 -14 -14 -26 -11 -11 3 -20
2 -20 -3 0 -4 -13 -13 -30 -20 -16 -7 -27 -16 -24 -21 3 -5 0 -9 -5 -9 -6 0
-11 6 -11 13 0 9 -2 9 -9 -1 -7 -11 -9 -10 -14 3 -4 9 -3 14 2 11 4 -3 16 3
26 14 20 22 7 28 -14 8 -11 -11 -12 -10 -6 1 4 7 32 24 61 37 53 23 54 25 54
66 1 121 44 215 118 262 75 46 117 57 172 44 38 -9 59 -8 90 1 l40 12 -2 296
c-2 187 -7 297 -13 299 -5 1 -16 0 -24 -3z m-171 -223 c0 -5 -5 -10 -11 -10
-5 0 -7 5 -4 10 3 6 8 10 11 10 2 0 4 -4 4 -10z m-290 -247 c-10 -16 -11 -15
-6 7 3 14 6 34 7 45 1 13 3 11 6 -7 2 -15 -1 -35 -7 -45z m-14 -49 c-4 -9 -9
-15 -11 -12 -3 3 -3 13 1 22 4 9 9 15 11 12 3 -3 3 -13 -1 -22z m-25 -43 c-6
-10 -7 -22 -3 -26 4 -5 1 -4 -7 0 -11 6 -13 4 -9 -7 7 -17 -22 -71 -58 -107
-28 -28 -29 -31 -9 -57 13 -17 14 -17 15 -1 0 9 5 17 11 17 7 0 9 10 7 24 -3
13 2 32 10 42 14 18 14 18 9 -3 -3 -14 0 -23 6 -23 9 0 9 -2 0 -8 -6 -4 -14
-19 -17 -34 -2 -14 -9 -36 -16 -47 -6 -12 -9 -25 -6 -30 3 -5 -3 -16 -13 -25
-18 -16 -19 -15 -30 31 -6 26 -10 69 -10 95 1 43 4 51 39 78 21 17 48 46 60
65 23 37 38 49 21 16z m-141 -155 c0 -2 -7 -7 -16 -10 -8 -3 -12 -2 -9 4 6 10
25 14 25 6z m-45 -26 c-3 -5 -11 -10 -16 -10 -6 0 -7 5 -4 10 3 6 11 10 16 10
6 0 7 -4 4 -10z m-518 -136 c-3 -3 -12 -4 -19 -1 -8 3 -5 6 6 6 11 1 17 -2 13
-5z m487 -49 c-14 -11 -15 -14 -3 -9 10 3 19 1 22 -3 3 -5 -4 -10 -15 -10 -12
-1 -31 -14 -43 -29 -26 -33 -61 -43 -45 -14 12 22 80 80 94 80 5 0 1 -7 -10
-15z m-198 -11 c-3 -9 -6 -18 -6 -20 0 -3 -4 -3 -10 1 -11 7 -2 35 12 35 6 0
7 -7 4 -16z m138 -106 c-3 -4 -9 -8 -15 -8 -5 0 -9 4 -9 8 0 5 7 9 15 9 8 0
12 -4 9 -9z m-464 -19 c0 -5 -5 -7 -12 -3 -8 5 -9 1 -4 -12 5 -14 4 -16 -5 -7
-6 6 -8 16 -5 22 9 14 26 14 26 0z m-5 -140 c11 -16 1 -19 -13 -3 -7 8 -8 14
-3 14 5 0 13 -5 16 -11z m335 -176 c0 -3 -7 -3 -15 0 -8 4 -23 -5 -35 -20 -11
-14 -20 -22 -20 -17 0 16 43 52 56 47 8 -3 14 -7 14 -10z m188 -84 c1 -9 -8
-21 -23 -27 -15 -7 -24 -8 -20 -2 3 5 1 10 -4 10 -13 0 -10 22 4 32 15 12 39
5 43 -13z m-547 -97 c-6 -11 -8 -21 -6 -24 3 -3 -1 -5 -9 -5 -10 0 -10 6 3 28
17 31 29 32 12 1z m113 -17 l6 -30 -15 25 c-10 18 -14 21 -15 8 0 -9 -4 -20
-10 -23 -11 -7 -2 23 13 43 12 15 13 15 21 -23z m144 -15 c19 0 23 -3 14 -9
-8 -4 -14 -12 -15 -17 -1 -5 -17 -22 -34 -38 -18 -15 -30 -32 -27 -37 7 -13
-15 -40 -27 -33 -5 3 -9 -1 -9 -8 0 -8 -5 -6 -11 5 -6 10 -8 21 -5 24 3 4 6 0
6 -8 0 -16 31 38 34 61 2 8 14 21 27 27 13 7 17 13 9 13 -21 -1 -51 -25 -48
-40 2 -7 -5 -14 -14 -15 -10 -2 -18 0 -18 3 0 11 85 88 88 80 2 -5 16 -8 30
-8z m98 -7 c-1 -20 -7 -29 -21 -31 -16 -3 -17 -1 -5 7 8 6 11 11 6 11 -13 0
-46 -31 -46 -43 0 -6 6 -2 14 9 14 18 15 18 22 1 4 -12 0 -25 -11 -35 -13 -13
-19 -14 -22 -4 -3 6 -9 12 -14 12 -4 0 -6 -6 -3 -13 3 -8 -3 -20 -13 -28 -16
-12 -17 -12 -8 1 6 9 2 7 -8 -3 -10 -11 -19 -18 -20 -16 -25 45 -26 47 -8 63
10 9 20 14 23 10 3 -3 16 8 28 23 12 15 34 31 48 34 l27 7 -30 2 -30 3 35 7
c19 4 35 8 36 9 1 0 1 -11 0 -26z m27 -10 c-5 -12 -3 -14 8 -8 11 6 12 5 2 -5
-7 -8 -16 -11 -19 -7 -7 6 2 37 10 37 3 0 2 -7 -1 -17z m-289 -15 c-3 -5 -9
-6 -14 -3 -4 3 -11 -1 -13 -7 -4 -8 -6 -7 -6 4 -1 11 6 16 18 15 11 0 17 -5
15 -9z m37 -13 c5 4 6 -1 2 -10 -5 -13 -7 -14 -14 -3 -5 7 -8 18 -8 23 0 6 3
4 6 -3 2 -6 9 -10 14 -7z m249 -35 c0 -5 -5 -10 -11 -10 -5 0 -7 5 -4 10 3 6
8 10 11 10 2 0 4 -4 4 -10z m-252 -41 c-6 -16 -12 -28 -14 -26 -5 5 13 57 20
57 3 0 0 -14 -6 -31z m-113 -49 c-3 -5 -12 -10 -18 -10 -7 0 -6 4 3 10 19 12
23 12 15 0z m252 -62 c-3 -7 -5 -2 -5 12 0 14 2 19 5 13 2 -7 2 -19 0 -25z
m110 -162 c0 -8 -8 -14 -18 -13 -14 1 -15 4 -7 14 14 17 25 16 25 -1z m-260
-48 c-3 -8 -6 -5 -6 6 -1 11 2 17 5 13 3 -3 4 -12 1 -19z m43 -158 c-20 -13
-33 -13 -25 0 3 6 14 10 23 10 15 0 15 -2 2 -10z m-89 -47 c10 -11 -21 -85
-35 -80 -17 6 -33 70 -18 75 7 2 10 8 7 12 -7 11 35 4 46 -7z"/>
<path d="M6114 5458 l-19 -23 23 19 c21 18 27 26 19 26 -2 0 -12 -10 -23 -22z"/>
<path d="M6072 5288 c-7 -7 -12 -19 -12 -27 0 -11 5 -8 16 7 18 25 15 39 -4
20z"/>
<path d="M5889 5114 c-13 -14 -17 -23 -9 -19 13 5 46 45 37 45 -2 0 -14 -11
-28 -26z"/>
<path d="M5903 4620 c3 -16 21 -14 25 2 3 10 2 10 -6 -1 -7 -9 -11 -10 -15 -2
-4 7 -5 8 -4 1z"/>
<path d="M5609 4404 c-16 -20 7 -25 25 -5 14 15 14 18 1 18 -8 0 -20 -6 -26
-13z"/>
<path d="M5420 3835 c-6 -8 -9 -19 -5 -25 10 -15 24 -3 22 20 -2 24 -1 24 -17
5z"/>
<path d="M7685 6050 c-3 -5 -2 -10 4 -10 5 0 13 5 16 10 3 6 2 10 -4 10 -5 0
-13 -4 -16 -10z"/>
<path d="M7680 6021 c0 -6 4 -13 10 -16 6 -3 7 1 4 9 -7 18 -14 21 -14 7z"/>
<path d="M7910 5960 c0 -5 5 -10 11 -10 5 0 7 5 4 10 -3 6 -8 10 -11 10 -2 0
-4 -4 -4 -10z"/>
<path d="M7440 5947 c0 -8 6 -20 14 -26 12 -10 13 -8 9 9 -7 25 -23 37 -23 17z"/>
<path d="M7866 5925 c4 -8 8 -15 10 -15 2 0 4 7 4 15 0 8 -4 15 -10 15 -5 0
-7 -7 -4 -15z"/>
<path d="M7735 5870 c-10 -17 12 -37 25 -24 8 8 6 15 -4 23 -10 9 -16 9 -21 1z"/>
<path d="M7629 5834 c-7 -8 -21 -13 -30 -11 -14 4 -18 -1 -16 -24 1 -16 6 -24
11 -19 5 5 15 6 22 3 8 -3 14 -1 14 5 0 5 7 13 16 16 8 3 12 2 9 -4 -3 -6 -3
-11 2 -11 4 -1 17 -3 28 -4 11 -2 29 -6 39 -11 17 -6 18 -4 13 17 -4 13 -7 27
-7 30 0 3 -11 5 -25 4 -13 -2 -29 3 -36 11 -15 18 -24 18 -40 -2z"/>
<path d="M2793 5795 c0 -8 4 -12 9 -9 5 3 6 10 3 15 -9 13 -12 11 -12 -6z"/>
<path d="M2664 5776 c-8 -21 16 -40 30 -26 7 7 4 16 -7 27 -15 15 -17 15 -23
-1z"/>
<path d="M2768 5768 c6 -6 18 -8 28 -6 14 3 12 5 -9 10 -19 3 -25 2 -19 -4z"/>
<path d="M2256 5761 c-3 -5 1 -11 9 -15 9 -3 15 0 15 9 0 16 -16 20 -24 6z"/>
<path d="M2620 5739 c0 -5 5 -7 10 -4 6 3 10 8 10 11 0 2 -4 4 -10 4 -5 0 -10
-5 -10 -11z"/>
<path d="M7805 5740 c4 -6 11 -8 16 -5 14 9 11 15 -7 15 -8 0 -12 -5 -9 -10z"/>
<path d="M7639 5723 c-1 -5 -1 -11 0 -15 1 -8 -24 -12 -43 -9 -5 1 -3 -5 4
-14 10 -12 23 -15 51 -10 30 5 39 3 51 -14 8 -12 17 -18 21 -15 8 9 -3 34 -16
34 -6 0 -19 8 -30 18 -11 9 -17 11 -13 5 4 -8 1 -13 -8 -13 -9 0 -13 7 -11 20
2 11 2 20 -1 20 -2 0 -5 -3 -5 -7z"/>
<path d="M7780 5719 c0 -5 5 -7 10 -4 6 3 10 8 10 11 0 2 -4 4 -10 4 -5 0 -10
-5 -10 -11z"/>
<path d="M2686 5671 c-4 -5 -2 -12 3 -15 5 -4 12 -2 15 3 4 5 2 12 -3 15 -5 4
-12 2 -15 -3z"/>
<path d="M7961 5664 c0 -11 3 -14 6 -6 3 7 2 16 -1 19 -3 4 -6 -2 -5 -13z"/>
<path d="M2814 5630 c-1 -20 4 -30 14 -30 9 0 12 6 8 15 -3 9 1 18 9 21 23 9
18 24 -7 24 -19 0 -23 -6 -24 -30z"/>
<path d="M7608 5653 c10 -8 11 -21 3 -62 -1 -2 -7 2 -14 8 -21 17 -15 -24 7
-48 17 -19 17 -21 2 -27 -9 -3 -13 -11 -9 -18 3 -6 3 -8 -2 -4 -4 4 -14 3 -22
-3 -10 -9 -13 -8 -13 1 0 6 -6 10 -12 8 -26 -9 -54 42 -35 62 9 10 9 11 0 6
-6 -3 -14 -2 -18 4 -4 6 -10 8 -15 5 -6 -3 -1 -28 9 -56 18 -47 19 -52 3 -80
-16 -28 -16 -30 1 -40 9 -6 14 -15 11 -21 -4 -6 -3 -8 4 -4 5 3 13 0 15 -6 4
-10 8 -9 16 2 8 11 6 17 -9 22 -31 11 -24 32 20 57 22 12 40 20 40 16 0 -3 10
3 22 14 11 11 26 18 31 14 6 -4 8 3 3 18 -4 13 -9 33 -10 44 -2 11 -4 22 -6
25 -1 3 -3 18 -3 34 -1 16 -9 31 -17 33 -11 4 -12 2 -2 -4z m22 -83 c0 -5 -7
-7 -15 -4 -8 4 -15 8 -15 10 0 2 7 4 15 4 8 0 15 -4 15 -10z"/>
<path d="M2793 5570 c2 -30 35 -47 54 -27 14 13 13 16 -6 26 -16 9 -21 9 -21
-1 -1 -8 -6 -6 -15 6 -13 18 -14 17 -12 -4z"/>
<path d="M7747 5526 c-3 -8 0 -20 8 -26 10 -8 14 -8 18 2 10 29 -15 52 -26 24z"/>
<path d="M2828 5519 c-24 -14 -23 -28 2 -22 11 3 20 12 20 19 0 16 0 16 -22 3z"/>
<path d="M6925 5520 c-7 -11 19 -20 34 -10 9 5 7 9 -8 13 -12 3 -23 2 -26 -3z"/>
<path d="M6935 5487 c-31 -10 -85 -47 -68 -47 5 0 14 5 20 11 7 7 9 3 6 -15
-3 -15 -10 -23 -16 -19 -6 4 -8 0 -4 -11 4 -10 3 -15 -3 -11 -5 3 -16 -10 -24
-30 -8 -19 -27 -40 -42 -47 l-27 -13 24 -6 c13 -4 52 -7 87 -8 53 -1 62 2 62
17 0 11 3 13 8 5 10 -16 45 105 40 141 -2 15 -7 26 -12 25 -5 0 -12 4 -15 9
-4 5 -18 5 -36 -1z"/>
<path d="M2672 5444 c-1 -13 3 -24 8 -24 5 0 7 8 4 18 -5 16 -5 16 9 0 15 -19
27 -23 27 -10 0 4 -11 14 -23 23 -22 16 -23 16 -25 -7z"/>
<path d="M6819 5413 c-8 -10 -9 -14 -2 -10 6 4 15 2 19 -4 6 -11 23 6 24 24 0
13 -27 7 -41 -10z"/>
<path d="M7616 5414 c-19 -13 -19 -15 -1 -54 11 -25 22 -37 28 -31 10 10 -8
51 -24 51 -6 0 -7 5 -4 10 4 6 10 8 15 5 4 -3 10 2 14 10 8 21 -6 25 -28 9z"/>
<path d="M7240 5391 c0 -6 4 -13 10 -16 6 -3 7 1 4 9 -7 18 -14 21 -14 7z"/>
<path d="M7558 5393 c-9 -50 10 -91 28 -61 5 7 2 8 -6 3 -10 -6 -12 -4 -6 11
13 30 12 46 -1 51 -7 3 -14 1 -15 -4z"/>
<path d="M2361 5346 c-7 -8 -10 -24 -6 -35 7 -22 32 -35 40 -20 4 5 1 8 -5 7
-19 -5 -37 29 -23 43 9 9 16 9 29 -2 15 -12 17 -12 12 1 -7 21 -32 24 -47 6z"/>
<path d="M2704 5321 c9 -13 48 -21 44 -9 -2 6 -14 13 -27 15 -12 2 -20 -1 -17
-6z"/>
<path d="M7545 5309 c-4 -6 -5 -12 -2 -15 2 -3 7 2 10 11 7 17 1 20 -8 4z"/>
<path d="M7411 5294 c0 -11 3 -14 6 -6 3 7 2 16 -1 19 -3 4 -6 -2 -5 -13z"/>
<path d="M7438 5303 c7 -3 16 -2 19 1 4 3 -2 6 -13 5 -11 0 -14 -3 -6 -6z"/>
<path d="M7549 5267 c7 -7 14 -8 21 -1 6 6 2 10 -12 11 -16 2 -18 -1 -9 -10z"/>
<path d="M6709 5253 c-8 -9 -9 -14 -2 -10 6 4 13 4 16 0 2 -5 2 -3 1 4 -2 6 2
14 9 17 8 3 8 5 1 5 -6 1 -18 -7 -25 -16z"/>
<path d="M7630 5261 c0 -7 -5 -9 -12 -5 -7 5 -8 3 -3 -5 5 -9 10 -10 18 -2 6
6 8 14 4 18 -4 3 -7 1 -7 -6z"/>
<path d="M2601 5195 c-25 -44 -26 -54 -4 -100 20 -42 50 -47 59 -9 4 15 12 23
19 20 18 -7 12 29 -15 84 -23 48 -22 28 2 -30 14 -34 13 -36 -13 -64 l-28 -29
-18 37 c-17 37 -17 38 6 78 12 22 21 42 18 44 -2 3 -14 -11 -26 -31z"/>
<path d="M3030 5222 c0 -4 10 -13 23 -21 22 -14 22 -14 3 8 -20 22 -26 25 -26
13z"/>
<path d="M7580 5205 c0 -8 4 -15 10 -15 5 0 7 7 4 15 -4 8 -8 15 -10 15 -2 0
-4 -7 -4 -15z"/>
<path d="M2787 5184 c-11 -11 5 -34 23 -34 10 0 20 -6 23 -12 3 -7 5 -4 4 8
-1 14 -8 20 -21 20 -12 -1 -20 5 -18 12 2 13 -1 15 -11 6z"/>
<path d="M7470 5160 c-9 -6 -10 -10 -3 -10 6 0 15 5 18 10 8 12 4 12 -15 0z"/>
<path d="M2170 5151 c0 -6 4 -13 10 -16 6 -3 7 1 4 9 -7 18 -14 21 -14 7z"/>
<path d="M2267 5103 c-10 -10 -8 -23 4 -23 5 0 8 4 5 9 -4 5 0 12 6 14 7 3 8
6 2 6 -6 1 -14 -2 -17 -6z"/>
<path d="M2425 5079 c-4 -6 -4 -13 -1 -16 3 -4 6 -1 6 6 0 7 5 9 12 5 7 -4 8
-3 4 4 -9 15 -13 15 -21 1z"/>
<path d="M6896 5082 c-3 -5 1 -9 9 -9 8 0 12 4 9 9 -3 4 -7 8 -9 8 -2 0 -6 -4
-9 -8z"/>
<path d="M2690 5040 c-8 -5 -18 -6 -22 -4 -4 3 -8 1 -8 -4 0 -14 25 -21 40
-12 7 4 11 13 9 19 -3 6 -9 7 -19 1z"/>
<path d="M7060 5036 c0 -2 13 -6 29 -8 17 -2 28 -1 25 4 -5 8 -54 12 -54 4z"/>
<path d="M6966 5020 c-27 -9 -7 -18 24 -10 18 4 21 8 10 12 -8 3 -24 2 -34 -2z"/>
<path d="M6701 5011 c-7 -5 -11 -15 -9 -22 3 -10 8 -7 17 9 13 24 12 26 -8 13z"/>
<path d="M6445 4994 c-49 -25 -75 -55 -111 -126 -42 -83 -37 -90 7 -10 47 86
108 121 214 122 50 1 29 15 -35 24 -32 4 -54 2 -75 -10z"/>
<path d="M2341 4993 c-2 -20 16 -24 30 -5 13 15 12 16 -3 4 -13 -10 -17 -10
-21 0 -4 9 -6 9 -6 1z"/>
<path d="M6900 4985 c-14 -8 -20 -14 -15 -14 6 0 21 6 35 14 14 8 21 14 15 14
-5 0 -21 -6 -35 -14z"/>
<path d="M7183 4956 c7 -14 13 -23 15 -21 7 6 -9 45 -18 45 -4 0 -3 -11 3 -24z"/>
<path d="M2566 4941 c-4 -6 -3 -18 2 -27 8 -15 10 -14 16 2 8 20 -8 42 -18 25z"/>
<path d="M2640 4932 c0 -5 7 -9 15 -9 8 0 12 4 9 9 -3 4 -9 8 -15 8 -5 0 -9
-4 -9 -8z"/>
<path d="M2205 4913 c-8 -23 -6 -24 15 -13 11 6 20 14 20 19 0 13 -29 8 -35
-6z"/>
<path d="M6677 4902 c-4 -18 -28 -47 -66 -81 -62 -53 -73 -78 -46 -101 36 -30
178 78 162 123 -3 6 -9 0 -16 -16 -14 -35 -56 -81 -68 -74 -16 10 -6 68 16 91
19 20 41 86 29 86 -3 0 -8 -13 -11 -28z"/>
<path d="M6776 4901 c-16 -9 -32 -23 -34 -30 -3 -8 12 -2 32 14 50 38 51 45 2
16z"/>
<path d="M2640 4897 c0 -21 12 -28 27 -16 19 16 16 29 -7 29 -11 0 -20 -6 -20
-13z"/>
<path d="M6800 4823 l-65 -68 68 65 c37 35 67 66 67 67 0 8 -10 -2 -70 -64z"/>
<path d="M7140 4878 c0 -4 7 -8 15 -8 8 0 15 4 15 8 0 5 -7 9 -15 9 -8 0 -15
-4 -15 -9z"/>
<path d="M2371 4872 c-1 -8 -6 -10 -13 -6 -8 5 -7 1 2 -10 15 -19 26 -7 17 17
-4 9 -6 9 -6 -1z"/>
<path d="M2090 4859 c0 -5 5 -7 10 -4 6 3 10 8 10 11 0 2 -4 4 -10 4 -5 0 -10
-5 -10 -11z"/>
<path d="M2594 4825 c-4 -9 -4 -19 0 -22 3 -4 6 2 6 13 0 16 2 17 10 4 6 -9
10 -10 10 -3 0 19 -20 26 -26 8z"/>
<path d="M2811 4791 c-29 -69 -26 -78 5 -12 13 30 23 56 20 58 -2 2 -13 -19
-25 -46z"/>
<path d="M6116 4792 c-10 -20 -20 -46 -22 -57 -3 -16 3 -13 26 13 29 31 39 65
22 76 -5 3 -17 -12 -26 -32z"/>
<path d="M5780 4772 c-20 -16 -21 -20 -7 -25 16 -6 30 6 33 31 3 16 0 15 -26
-6z m20 -6 c0 -3 -4 -8 -10 -11 -5 -3 -10 -1 -10 4 0 6 5 11 10 11 6 0 10 -2
10 -4z"/>
<path d="M3490 4742 c6 -13 14 -21 18 -18 3 4 -2 14 -12 24 -18 16 -18 16 -6
-6z"/>
<path d="M6395 4734 c-16 -8 -34 -20 -40 -26 -7 -8 -6 -9 2 -4 6 3 16 -1 21
-10 15 -26 77 -2 80 31 2 30 -18 33 -63 9z"/>
<path d="M6707 4743 c-4 -3 -6 -22 -6 -42 2 -33 2 -34 6 -6 3 16 12 35 21 42
15 11 15 12 1 13 -9 0 -19 -3 -22 -7z"/>
<path d="M2777 4668 c-8 -69 7 -215 27 -263 12 -28 13 -41 5 -51 -8 -10 -6
-24 10 -57 12 -24 21 -47 21 -52 0 -4 12 -24 27 -44 20 -26 28 -47 28 -81 0
-36 4 -45 19 -48 11 -2 33 -18 50 -36 81 -82 157 -136 85 -60 -93 98 -170 233
-221 387 -27 80 -31 108 -34 217 -1 84 0 109 5 75 l8 -50 1 42 c4 83 -22 100
-31 21z"/>
<path d="M3810 4716 c0 -2 8 -10 18 -17 15 -13 16 -12 3 4 -13 16 -21 21 -21
13z"/>
<path d="M7005 4710 c-3 -5 -1 -10 4 -10 6 0 11 5 11 10 0 6 -2 10 -4 10 -3 0
-8 -4 -11 -10z"/>
<path d="M2417 4656 c-3 -8 1 -20 9 -26 11 -10 14 -10 14 -1 0 7 5 9 13 5 6
-4 3 2 -7 14 -23 26 -22 26 -29 8z"/>
<path d="M2286 4624 c-9 -24 -7 -31 5 -14 9 12 10 11 6 -6 -5 -22 14 -27 30
-9 4 4 2 5 -4 1 -8 -4 -13 -1 -13 9 0 9 5 13 10 10 6 -3 10 -4 10 -1 0 3 -9
10 -19 15 -15 8 -20 7 -25 -5z"/>
<path d="M6240 4569 c-15 -28 -4 -38 15 -13 17 22 19 34 5 34 -5 0 -14 -9 -20
-21z"/>
<path d="M2550 4565 c-11 -13 -10 -14 4 -9 9 3 16 10 16 15 0 13 -6 11 -20 -6z"/>
<path d="M6890 4527 c0 -8 7 -14 15 -14 11 0 12 4 4 14 -6 7 -13 13 -15 13 -2
0 -4 -6 -4 -13z"/>
<path d="M6703 4475 c0 -33 2 -45 4 -27 2 18 2 45 0 60 -2 15 -4 0 -4 -33z"/>
<path d="M2335 4510 c3 -5 8 -10 11 -10 2 0 4 5 4 10 0 6 -5 10 -11 10 -5 0
-7 -4 -4 -10z"/>
<path d="M2390 4506 c0 -2 7 -7 16 -10 8 -3 12 -2 9 4 -6 10 -25 14 -25 6z"/>
<path d="M2075 4490 c3 -5 8 -10 11 -10 2 0 4 5 4 10 0 6 -5 10 -11 10 -5 0
-7 -4 -4 -10z"/>
<path d="M6206 4484 c-7 -19 -8 -49 -1 -42 7 7 17 58 11 58 -2 0 -7 -7 -10
-16z"/>
<path d="M3561 4450 c12 -24 17 -47 20 -97 1 -13 8 -28 15 -34 8 -6 14 -17 14
-24 0 -7 11 -20 25 -29 14 -9 23 -22 19 -28 -4 -7 -3 -8 5 -4 6 4 9 12 6 17
-12 19 2 8 37 -29 l36 -38 -31 4 c-24 2 -28 1 -17 -7 8 -5 17 -8 21 -5 4 2 5
-5 2 -16 -4 -13 5 -30 28 -52 23 -24 29 -27 20 -10 -6 12 -9 22 -5 22 4 0 -1
9 -11 20 -10 11 -16 23 -12 26 8 9 28 -6 22 -16 -3 -5 15 -29 40 -54 25 -26
45 -42 45 -36 0 13 47 5 65 -10 7 -6 19 -9 26 -8 9 2 13 -5 12 -17 -1 -11 0
-14 3 -7 3 6 11 9 17 6 7 -3 -3 8 -20 25 -18 17 -39 28 -47 25 -8 -3 -17 0
-22 7 -5 8 -3 10 7 4 8 -5 -2 7 -21 26 -19 19 -38 33 -42 32 -4 -2 -10 2 -14
8 -4 7 -3 9 3 6 7 -4 10 3 9 17 0 13 -6 22 -13 19 -12 -5 -29 34 -19 44 3 4 6
-1 6 -10 0 -17 20 -19 31 -4 3 4 22 -9 42 -28 l37 -36 -6 43 c-4 24 -11 51
-16 61 -5 9 -7 21 -4 26 7 10 -18 34 -26 26 -8 -8 -58 17 -58 29 0 6 5 5 12
-2 7 -7 17 -12 23 -12 5 0 1 6 -10 12 -11 7 -49 13 -85 14 -82 3 -89 5 -87 18
1 6 -6 11 -15 11 -10 0 -23 7 -30 15 -11 12 -10 12 7 0 17 -12 5 4 -49 65 -4
6 -2 -1 5 -15z m288 -343 c8 -10 7 -14 -2 -14 -8 0 -14 6 -14 14 0 7 1 13 2
13 2 0 8 -6 14 -13z m76 -55 c-3 -3 -11 0 -18 7 -9 10 -8 11 6 5 10 -3 15 -9
12 -12z"/>
<path d="M2315 4400 c6 -10 4 -12 -11 -6 -15 6 -17 5 -6 -5 9 -9 15 -10 23 -2
8 8 7 13 -2 18 -8 6 -10 4 -4 -5z"/>
<path d="M6067 4340 c-3 -11 -3 -20 -1 -20 2 0 8 9 14 20 6 11 7 20 2 20 -6 0
-12 -9 -15 -20z"/>
<path d="M2601 4305 c-20 -35 -21 -39 -6 -61 19 -29 41 -31 55 -5 15 28 12 53
-9 80 l-18 23 -22 -37z m49 -36 c0 -21 -26 -43 -40 -34 -13 8 -13 41 1 67 11
21 12 21 25 3 8 -10 14 -26 14 -36z"/>
<path d="M5810 4336 c0 -2 8 -10 18 -17 15 -13 16 -12 3 4 -13 16 -21 21 -21
13z"/>
<path d="M6008 4317 c-24 -20 -26 -24 -13 -47 12 -23 14 -23 21 -6 4 11 2 21
-6 26 -8 5 -9 9 -1 14 6 4 15 5 19 2 4 -2 8 4 8 15 0 10 0 19 -1 19 0 -1 -12
-11 -27 -23z"/>
<path d="M3305 4270 c-13 -26 -13 -29 0 -24 8 3 13 10 10 14 -3 5 2 16 11 24
8 9 11 16 5 16 -6 0 -17 -13 -26 -30z"/>
<path d="M5875 4290 c-3 -5 -4 -10 0 -10 3 0 1 -9 -5 -20 -6 -11 -15 -18 -21
-15 -7 5 -30 -35 -31 -55 0 -3 -4 -11 -10 -17 -13 -16 -32 -17 -22 -1 4 7 3 8
-5 4 -15 -10 -3 -29 15 -22 8 3 14 0 14 -7 0 -7 5 -4 11 6 6 10 16 14 22 10 7
-3 3 3 -7 15 -11 12 -17 22 -15 23 2 0 12 2 22 4 28 5 58 36 48 49 -5 6 -7 19
-6 29 4 19 -1 22 -10 7z m10 -50 c-3 -5 -11 -10 -16 -10 -6 0 -7 5 -4 10 3 6
11 10 16 10 6 0 7 -4 4 -10z"/>
<path d="M2320 4261 c0 -8 -7 -11 -17 -6 -15 5 -16 4 -5 -6 9 -10 15 -10 24
-1 6 6 9 15 5 19 -4 3 -7 1 -7 -6z"/>
<path d="M6931 4181 c-20 -28 -30 -63 -49 -178 -12 -70 10 -121 51 -114 4 0 6
-2 6 -6 -4 -22 3 -32 16 -27 13 5 75 -13 75 -22 0 -1 -9 -19 -21 -38 -29 -49
-21 -62 21 -34 22 14 46 45 65 83 26 52 30 71 30 140 0 60 -4 86 -17 105 -10
13 -18 28 -18 33 0 5 8 3 18 -4 9 -7 4 1 -12 19 -32 34 -48 44 -25 14 8 -10 5
-9 -6 3 -60 62 -103 70 -134 26z"/>
<path d="M3534 4100 c0 -52 1 -74 3 -47 2 26 2 68 0 95 -2 26 -3 4 -3 -48z"/>
<path d="M7242 4154 c-1 -13 0 -24 2 -24 7 0 14 40 7 44 -4 3 -8 -6 -9 -20z"/>
<path d="M3095 4120 c-3 -5 1 -10 10 -10 9 0 13 5 10 10 -3 6 -8 10 -10 10 -2
0 -7 -4 -10 -10z"/>
<path d="M5685 4050 c-20 -22 -41 -27 -29 -7 5 8 2 7 -9 -2 -10 -8 -15 -16
-12 -19 3 -3 1 -10 -5 -16 -6 -8 -3 -12 10 -13 11 -1 25 6 32 15 18 24 37 25
31 2 -3 -12 0 -20 6 -20 7 0 9 -5 5 -12 -4 -7 2 -5 14 6 19 16 22 36 6 36 -3
0 -2 -5 2 -12 4 -7 3 -8 -5 -4 -6 4 -9 12 -6 17 4 5 0 18 -8 29 l-14 20 -18
-20z m-30 -29 c3 -5 2 -12 -3 -15 -5 -3 -9 1 -9 9 0 17 3 19 12 6z"/>
<path d="M5800 4063 c0 -5 5 -15 10 -23 8 -12 10 -12 10 -1 0 11 3 11 15 1 17
-14 10 -34 -8 -24 -7 4 -9 4 -5 -1 4 -4 3 -14 -3 -22 -6 -7 -9 -13 -7 -13 7 0
41 32 58 55 14 18 13 19 -1 8 -13 -11 -19 -9 -34 7 -18 20 -35 26 -35 13z"/>
<path d="M2220 4020 c0 -5 5 -10 11 -10 5 0 7 5 4 10 -3 6 -8 10 -11 10 -2 0
-4 -4 -4 -10z"/>
<path d="M4457 4010 c3 -12 0 -20 -6 -20 -7 0 -10 4 -6 9 3 5 1 12 -3 15 -11
7 -9 -34 2 -53 6 -9 5 -12 -2 -7 -6 3 -14 1 -18 -5 -4 -7 -3 -9 4 -5 6 3 13 2
17 -4 8 -13 42 -13 50 -1 3 5 -4 28 -16 50 -23 45 -30 51 -22 21z m18 -60 c3
-5 -1 -10 -10 -10 -9 0 -13 5 -10 10 3 6 8 10 10 10 2 0 7 -4 10 -10z"/>
<path d="M3975 3992 c2 -10 4 -21 4 -26 1 -4 7 -6 15 -3 18 7 58 -21 50 -35
-4 -6 -2 -8 4 -4 6 3 17 -1 25 -9 9 -8 18 -15 22 -15 13 0 -8 21 -64 64 -39
29 -58 39 -56 28z"/>
<path d="M5664 3991 c-16 -13 -19 -22 -12 -34 5 -9 6 -17 2 -17 -3 0 -1 -7 6
-15 9 -10 9 -15 1 -15 -6 0 -11 -4 -11 -8 0 -5 6 -9 14 -9 7 0 12 7 11 16 -2
9 -4 16 -5 16 -8 0 -5 57 3 62 6 3 7 1 3 -5 -4 -7 -3 -12 3 -12 5 0 8 -9 6
-19 -2 -11 2 -25 10 -31 18 -15 29 5 12 22 -8 7 -13 21 -12 29 5 30 -9 38 -31
20z"/>
<path d="M5628 3931 c-3 -23 -2 -28 8 -20 12 10 13 33 2 44 -3 3 -8 -8 -10
-24z"/>
<path d="M7162 3940 c0 -14 2 -19 5 -12 2 6 2 18 0 25 -3 6 -5 1 -5 -13z"/>
<path d="M3530 3914 c0 -21 4 -45 9 -53 5 -8 7 5 4 35 -7 61 -13 70 -13 18z"/>
<path d="M4354 3930 c1 -14 6 -24 9 -22 11 4 11 6 -1 27 -11 19 -12 18 -8 -5z"/>
<path d="M4510 3942 c0 -7 -1 -15 -2 -19 -2 -3 5 -7 15 -9 15 -2 16 0 5 14 -7
9 -14 19 -15 21 -2 2 -3 -1 -3 -7z"/>
<path d="M6610 3940 c-9 -6 -10 -10 -3 -10 6 0 15 5 18 10 8 12 4 12 -15 0z"/>
<path d="M2657 3925 c-4 -8 -2 -17 3 -20 12 -7 40 5 40 18 0 7 -4 7 -12 -1
-17 -17 -33 -15 -18 3 7 9 8 15 2 15 -5 0 -12 -7 -15 -15z"/>
<path d="M3106 3917 c3 -10 9 -15 12 -12 3 3 0 11 -7 18 -10 9 -11 8 -5 -6z"/>
<path d="M6570 3920 c-9 -6 -10 -10 -3 -10 6 0 15 5 18 10 8 12 4 12 -15 0z"/>
<path d="M4447 3913 c-12 -12 -7 -50 8 -63 16 -13 30 -7 45 20 15 29 -30 66
-53 43z"/>
<path d="M6498 3884 c-27 -13 -48 -27 -48 -29 0 -3 23 6 50 20 28 14 50 28 50
30 0 7 1 7 -52 -21z"/>
<path d="M7310 3897 c0 -9 -9 -32 -19 -50 -10 -19 -16 -39 -12 -45 4 -6 17 11
30 40 17 36 20 53 12 61 -8 8 -11 6 -11 -6z"/>
<path d="M3957 3878 c-2 -8 2 -23 10 -33 13 -19 14 -18 9 9 -6 34 -12 41 -19
24z"/>
<path d="M5607 3876 c-3 -8 -2 -18 3 -21 13 -8 20 9 11 24 -6 10 -10 9 -14 -3z"/>
<path d="M5653 3883 c-7 -3 -12 -17 -12 -31 2 -23 2 -24 6 -5 3 13 13 23 26
25 16 2 18 5 7 9 -8 3 -21 4 -27 2z"/>
<path d="M7151 3864 c0 -11 3 -14 6 -6 3 7 2 16 -1 19 -3 4 -6 -2 -5 -13z"/>
<path d="M4542 3865 c4 -4 0 -14 -8 -22 -13 -14 -13 -18 6 -38 11 -12 18 -24
14 -27 -3 -3 -1 -8 3 -11 5 -3 10 8 11 24 2 19 -3 32 -13 35 -8 3 -12 11 -9
16 4 6 17 -3 30 -18 13 -16 23 -23 24 -16 0 6 -5 12 -11 12 -5 0 -8 3 -6 8 3
4 -7 16 -22 26 -14 11 -23 16 -19 11z"/>
<path d="M4240 3841 c5 -11 15 -23 21 -27 6 -3 3 5 -6 20 -20 30 -30 35 -15 7z"/>
<path d="M7130 3838 c0 -10 -30 -48 -67 -85 -37 -37 -61 -60 -53 -50 11 15 11
17 -3 12 -8 -4 -18 -14 -21 -23 -3 -9 -9 -23 -12 -31 -5 -10 -3 -11 7 -5 8 4
-4 -15 -26 -43 -22 -28 -48 -54 -59 -57 -11 -3 -15 -9 -10 -17 4 -8 3 -10 -5
-5 -7 4 -41 -5 -77 -20 -37 -15 -60 -30 -53 -34 28 -18 -159 -22 -210 -4 -8 2
-22 -3 -31 -11 -11 -10 -21 -12 -24 -7 -4 6 -20 7 -43 1 -21 -5 -51 -6 -68 -3
-16 3 -50 -2 -74 -11 -29 -10 -47 -12 -51 -5 -3 5 -14 -4 -23 -20 -13 -21 -14
-31 -6 -36 8 -4 9 -3 5 4 -11 17 9 15 24 -3 7 -8 22 -15 35 -15 12 0 35 -12
51 -26 21 -19 24 -24 9 -19 -46 17 -55 17 -61 1 -13 -33 57 -83 93 -68 21 8
28 43 7 35 -8 -3 -11 -9 -8 -14 7 -12 -37 -11 -55 0 -8 5 -16 17 -17 26 -2 14
3 16 26 11 16 -3 32 -1 36 5 4 7 16 1 33 -14 14 -14 37 -28 50 -32 25 -8 26
-8 86 -20 96 -19 144 -32 158 -43 7 -5 21 -12 32 -16 11 -3 -6 -3 -38 -1 -32
3 -76 14 -98 25 -31 16 -46 19 -72 11 -30 -8 -30 -9 -7 -12 14 -1 33 -1 43 -1
10 1 29 -6 43 -15 33 -21 215 -34 247 -16 12 6 25 9 29 7 5 -3 8 0 8 6 0 6 4
9 8 6 9 -6 64 28 62 38 0 4 6 14 15 23 9 8 13 18 10 21 -3 4 -10 0 -15 -8 -7
-11 -13 -9 -30 13 -18 22 -25 25 -41 17 -15 -8 -19 -7 -19 4 0 10 -6 13 -15
10 -13 -5 -17 1 -14 22 0 4 -5 10 -12 15 -11 6 -10 11 2 26 24 27 34 47 21 39
-18 -11 -15 -2 8 24 11 13 20 19 20 15 0 -4 9 0 20 10 11 10 20 14 20 9 0 -5
7 -1 14 9 9 12 22 16 40 13 15 -3 24 -1 21 3 -8 14 36 63 52 57 8 -3 13 0 11
7 -2 7 6 22 17 33 38 40 52 61 60 90 13 50 16 125 5 142 -9 16 -9 16 -10 0z
m-800 -402 c0 -3 -4 -8 -10 -11 -5 -3 -10 -1 -10 4 0 6 5 11 10 11 6 0 10 -2
10 -4z"/>
<path d="M6835 3830 c-3 -5 -3 -10 2 -10 4 0 1 -5 -7 -10 -13 -8 -13 -10 2
-10 11 0 16 7 15 20 -1 23 -3 24 -12 10z"/>
<path d="M3363 3823 c9 -2 23 -2 30 0 6 3 -1 5 -18 5 -16 0 -22 -2 -12 -5z"/>
<path d="M4625 3803 c11 -3 25 -10 30 -15 7 -8 6 -9 -2 -4 -18 10 -25 -10 -8
-24 19 -16 19 -29 0 -26 -9 1 -14 5 -13 8 2 3 -6 15 -16 27 -14 15 -22 18 -27
10 -4 -7 2 -20 14 -30 20 -17 20 -18 4 -19 -10 0 -25 -7 -33 -15 -18 -17 -11
-19 16 -5 16 8 18 8 14 -5 -6 -15 -18 -20 -39 -15 -5 1 -7 -2 -2 -6 16 -17 47
-14 47 4 0 9 9 23 20 29 16 11 23 9 40 -10 12 -12 33 -22 47 -22 23 -1 24 0 9
10 -24 14 -54 38 -38 30 16 -8 15 10 -3 44 -15 30 -35 42 -63 40 -13 -1 -12
-3 3 -6z m59 -48 c3 -8 1 -15 -4 -15 -6 0 -10 7 -10 15 0 8 2 15 4 15 2 0 6
-7 10 -15z m21 -63 c-3 -3 -11 0 -18 7 -9 10 -8 11 6 5 10 -3 15 -9 12 -12z"/>
<path d="M6923 3795 c-12 -9 -26 -15 -30 -14 -9 2 -40 -8 -67 -22 -13 -7 -16
-7 -11 0 3 6 0 12 -7 12 -7 1 5 5 27 9 l40 7 -40 1 c-50 2 -76 -11 -50 -25 16
-9 16 -11 1 -16 -12 -5 -15 -3 -10 5 5 8 2 9 -10 5 -10 -4 -15 -3 -11 3 13 22
-25 -3 -40 -26 -9 -15 -25 -24 -41 -24 -14 0 -45 -9 -70 -20 -24 -11 -67 -25
-94 -30 -72 -14 -93 -26 -80 -49 5 -10 6 -22 2 -26 -4 -5 1 -5 10 -2 19 7 71
-30 63 -44 -3 -5 -20 -12 -38 -17 -30 -8 -28 -9 42 -25 86 -20 119 -21 158 -6
15 6 45 12 66 15 53 5 156 62 178 99 27 43 24 81 -6 101 -31 20 -70 7 -85 -28
-5 -13 -9 -17 -9 -10 -2 23 32 63 68 82 20 10 45 27 55 39 23 25 19 27 -11 6z"/>
<path d="M6320 3790 c-8 -5 -10 -10 -5 -10 6 0 17 5 25 10 8 5 11 10 5 10 -5
0 -17 -5 -25 -10z"/>
<path d="M4756 3782 c-3 -5 1 -9 9 -9 8 0 15 4 15 9 0 4 -4 8 -9 8 -6 0 -12
-4 -15 -8z"/>
<path d="M4640 3691 c0 -5 7 -11 14 -14 10 -4 13 -1 9 9 -6 15 -23 19 -23 5z"/>
<path d="M6259 3655 c-9 -25 -13 -42 -8 -40 9 6 33 75 27 80 -2 2 -11 -16 -19
-40z"/>
<path d="M6092 3679 c10 -5 15 -17 12 -27 -5 -14 -4 -15 5 -2 17 24 13 40 -11
40 -20 -1 -21 -2 -6 -11z"/>
<path d="M4287 3662 c-21 -23 -21 -32 -3 -32 7 0 19 -7 26 -15 10 -12 9 -15
-4 -15 -10 0 -14 -5 -11 -10 4 -6 11 -8 16 -5 12 8 12 -8 -1 -21 -7 -7 -2 -20
17 -40 15 -16 28 -33 28 -39 1 -9 53 -124 77 -169 7 -14 7 -17 -2 -11 -25 16
10 -34 42 -59 30 -23 34 -24 39 -8 5 12 8 6 11 -18 4 -27 5 -23 6 19 1 30 -1
51 -5 47 -7 -7 -73 101 -73 119 1 6 7 -1 14 -14 13 -23 14 -23 25 -5 11 19 12
19 24 0 7 -11 19 -27 28 -36 8 -9 14 -21 12 -27 -2 -6 1 -14 6 -18 21 -13 10
29 -20 76 -33 52 -91 102 -105 91 -5 -4 -6 -3 -2 2 10 12 -31 68 -44 60 -7 -4
-8 -2 -4 4 3 6 -7 33 -24 60 -16 27 -30 57 -30 66 0 21 -23 20 -43 -2z m73
-117 c11 -13 10 -14 -4 -9 -9 3 -16 10 -16 15 0 13 6 11 20 -6z"/>
<path d="M6072 3615 c-7 -8 -9 -15 -4 -15 5 0 15 7 22 15 16 19 -1 19 -18 0z"/>
<path d="M6187 3616 c-6 -15 -10 -16 -22 -6 -15 12 -20 4 -16 -22 0 -5 -6 -8
-14 -8 -8 0 -12 -6 -9 -14 4 -9 -6 -16 -31 -20 -22 -5 -33 -11 -29 -18 5 -7 1
-9 -9 -5 -31 12 -18 -17 18 -42 l34 -23 47 50 c25 28 55 54 66 58 14 4 17 9
10 16 -6 6 -8 17 -4 26 4 11 1 14 -11 9 -8 -3 -17 -1 -20 6 -2 6 -6 3 -10 -7z"/>
<path d="M2793 3598 c-5 -7 -17 -30 -28 -50 l-19 -36 27 -41 c26 -40 47 -53
47 -30 0 6 9 24 20 40 l21 28 -26 51 c-28 55 -28 56 -42 38z m47 -83 c0 -11
-8 -32 -18 -47 l-18 -27 -22 33 -23 34 23 46 22 46 18 -32 c9 -18 17 -42 18
-53z"/>
<path d="M4910 3593 c0 -11 7 -36 15 -54 l14 -34 0 35 c0 19 -6 44 -14 54 -15
19 -15 19 -15 -1z"/>
<path d="M5920 3586 c0 -10 9 -16 25 -16 14 0 25 5 25 10 0 6 -4 10 -9 10 -5
0 -16 3 -25 6 -11 4 -16 1 -16 -10z"/>
<path d="M6385 3580 c3 -5 8 -10 11 -10 2 0 4 5 4 10 0 6 -5 10 -11 10 -5 0
-7 -4 -4 -10z"/>
<path d="M4770 3563 c0 -14 2 -15 9 -4 5 7 14 10 20 7 6 -4 8 -12 5 -18 -4 -6
-2 -8 4 -4 5 3 13 0 15 -6 4 -9 6 -9 6 -1 1 16 -27 43 -45 43 -8 0 -14 -8 -14
-17z"/>
<path d="M4724 3555 c9 -7 16 -17 16 -23 0 -6 4 -13 10 -17 6 -3 5 5 -1 23 -5
16 -17 29 -26 29 -14 0 -14 -2 1 -12z"/>
<path d="M7297 3563 c-12 -11 -8 -31 8 -37 19 -7 40 29 23 40 -6 4 -8 3 -5 -3
4 -6 0 -14 -9 -17 -12 -4 -15 -2 -10 9 6 16 3 19 -7 8z"/>
<path d="M4090 3556 c0 -2 8 -10 18 -17 15 -13 16 -12 3 4 -13 16 -21 21 -21
13z"/>
<path d="M6355 3521 c-13 -5 -3 -8 30 -8 33 0 43 3 30 8 -11 4 -24 8 -30 8 -5
0 -19 -4 -30 -8z"/>
<path d="M4247 3503 c7 -2 15 -4 18 -3 7 1 48 -48 62 -74 7 -12 13 -15 17 -8
10 17 -63 92 -88 91 -11 0 -15 -3 -9 -6z"/>
<path d="M7350 3496 c7 -7 14 -6 21 1 9 9 7 12 -9 10 -14 -1 -18 -5 -12 -11z"/>
<path d="M5758 3483 c7 -3 16 -2 19 1 4 3 -2 6 -13 5 -11 0 -14 -3 -6 -6z"/>
<path d="M5808 3483 c6 -2 18 -2 25 0 6 3 1 5 -13 5 -14 0 -19 -2 -12 -5z"/>
<path d="M7006 3483 c-4 -5 -13 -8 -18 -8 -6 0 -13 -7 -15 -15 -4 -12 -3 -12
5 -1 6 9 11 10 13 2 2 -6 10 -2 17 9 12 20 12 26 -2 13z"/>
<path d="M5933 3473 c15 -2 39 -2 55 0 15 2 2 4 -28 4 -30 0 -43 -2 -27 -4z"/>
<path d="M4220 3446 c0 -2 8 -10 18 -17 15 -13 16 -12 3 4 -13 16 -21 21 -21
13z"/>
<path d="M6129 3423 l-24 -28 28 24 c15 14 27 26 27 28 0 8 -8 1 -31 -24z"/>
<path d="M6893 3433 c0 -9 4 -10 14 -2 7 6 13 12 13 14 0 1 -6 2 -13 2 -8 0
-14 -6 -14 -14z"/>
<path d="M3348 3415 c2 -14 10 -25 18 -25 8 0 11 -7 8 -17 -5 -15 -4 -16 5 -3
8 11 7 18 -4 26 -8 6 -15 16 -15 22 0 6 -4 13 -9 16 -4 3 -6 -6 -3 -19z"/>
<path d="M6965 3430 c3 -5 8 -10 11 -10 2 0 4 5 4 10 0 6 -5 10 -11 10 -5 0
-7 -4 -4 -10z"/>
<path d="M7111 3410 c-8 -4 -11 -15 -8 -24 7 -18 27 -22 27 -5 0 5 -4 7 -10 4
-5 -3 -10 -2 -10 4 0 5 6 11 13 14 6 2 10 7 7 10 -3 3 -12 2 -19 -3z"/>
<path d="M3680 3390 c-6 -11 -8 -20 -6 -20 3 0 10 9 16 20 6 11 8 20 6 20 -3
0 -10 -9 -16 -20z"/>
<path d="M4600 3368 c10 -24 21 -64 24 -90 5 -41 4 -48 -11 -48 -16 -1 -15 -2
2 -12 33 -19 49 -50 53 -98 1 -25 6 -88 11 -141 13 -141 72 -279 120 -279 12
0 13 -2 3 -9 -10 -6 -10 -10 3 -21 14 -12 20 -7 15 15 -1 5 2 7 6 2 4 -4 7
-29 5 -55 -3 -54 30 -149 49 -144 8 2 10 -4 6 -15 -19 -48 -18 -69 3 -70 18
-1 19 1 10 24 -5 14 -8 28 -5 30 2 2 9 -10 14 -27 9 -26 15 -30 38 -26 23 5
25 3 20 -20 -9 -34 20 -93 92 -189 75 -100 120 -141 205 -184 84 -44 131 -92
151 -156 11 -34 15 -39 11 -17 -13 86 -51 128 -175 193 -85 44 -139 97 -216
214 -47 69 -63 110 -61 145 1 15 -3 24 -10 23 -7 -2 -13 4 -13 13 0 8 5 12 10
9 6 -3 10 0 11 7 0 7 5 1 11 -15 5 -15 13 -25 18 -22 5 3 7 -3 6 -12 -4 -25
13 -70 28 -76 7 -3 13 5 14 20 1 17 -2 22 -11 17 -9 -6 -9 -5 0 7 9 11 10 25
4 46 -6 20 -4 37 5 54 13 23 13 22 8 -13 -5 -36 8 -53 19 -25 4 10 6 10 6 0 1
-7 6 -13 12 -13 5 0 7 4 4 10 -7 12 23 117 36 126 5 3 7 15 3 27 -6 19 -5 20
9 9 14 -12 16 -11 12 7 -2 12 1 20 8 18 7 -1 11 3 10 9 -1 6 5 11 13 12 8 1
21 3 29 4 10 1 12 5 5 13 -8 9 -6 14 5 19 9 3 13 2 10 -4 -3 -6 -1 -10 4 -10
6 0 11 7 11 16 0 8 5 12 10 9 6 -4 7 -12 3 -18 -4 -7 2 -5 13 3 29 22 30 24
12 17 -12 -4 -18 -1 -18 9 0 8 5 12 11 9 6 -4 17 1 25 11 8 12 13 13 12 5 -2
-8 8 -15 26 -18 25 -3 28 -2 17 11 -9 11 -9 16 0 22 7 4 9 3 5 -4 -3 -6 3 -18
15 -26 23 -16 44 -12 33 5 -3 6 0 10 7 8 33 -4 48 1 43 16 -4 8 -10 15 -16 15
-5 0 -7 -4 -3 -9 3 -5 0 -13 -6 -17 -8 -4 -9 -3 -5 4 5 8 2 10 -8 6 -9 -3 -16
-1 -16 6 0 6 5 8 10 5 6 -3 10 -1 10 4 0 6 11 10 24 9 14 -1 23 -5 20 -9 -2
-4 0 -10 6 -14 5 -3 10 1 10 9 0 10 6 13 15 10 10 -4 13 -2 10 8 -3 7 2 22 11
33 8 11 13 14 9 8 -3 -7 -4 -13 -1 -13 8 0 51 103 48 113 -1 5 2 6 8 2 7 -4 6
-13 -2 -28 -11 -21 13 1 67 63 l20 23 -30 -18 -30 -17 24 21 c21 19 78 31 68
14 -3 -5 6 -9 20 -9 23 -2 24 -1 7 17 -16 18 -16 19 -1 13 9 -3 17 -9 18 -13
0 -3 2 -14 4 -23 2 -12 -2 -15 -13 -11 -10 5 -13 2 -8 -6 5 -7 14 -10 21 -7 7
2 18 0 24 -5 8 -6 8 -5 1 3 -5 7 -10 19 -9 27 0 11 2 12 6 3 4 -10 8 -10 21 0
14 10 15 10 5 -2 -8 -9 -9 -19 -2 -32 13 -24 29 -23 29 3 0 13 -4 18 -12 13
-7 -4 -3 4 10 18 19 21 21 30 13 51 -10 25 -54 56 -96 67 -12 4 -20 14 -20 28
0 12 -4 22 -9 21 -14 -1 -26 23 -26 55 0 21 -4 27 -15 22 -8 -3 -21 4 -29 16
-8 11 -21 18 -29 15 -8 -3 -21 0 -28 6 -11 10 -11 9 0 -5 11 -14 9 -19 -8 -30
-23 -14 -28 -38 -9 -38 6 0 1 -9 -12 -20 -22 -19 -25 -19 -48 -4 -22 15 -25
14 -46 -5 -12 -12 -34 -21 -48 -21 -24 0 -26 4 -30 45 -2 25 0 45 3 45 11 0
18 40 8 46 -5 3 -9 -1 -9 -9 0 -29 -61 -97 -107 -121 -65 -32 -125 -41 -179
-26 -25 7 -47 17 -50 21 -3 5 7 4 22 -1 15 -6 46 -12 68 -13 47 -1 138 22 131
34 -3 4 0 11 6 15 8 5 9 3 4 -6 -5 -8 -3 -11 6 -8 8 3 13 11 11 17 -1 6 9 16
24 21 14 6 22 14 19 20 -3 5 -3 10 2 10 14 0 35 53 40 99 4 35 3 42 -8 35 -8
-4 -38 -23 -67 -42 -70 -44 -172 -92 -197 -92 -20 0 -243 93 -426 176 -52 24
-98 44 -102 44 -3 0 3 -19 13 -42z m120 -63 c0 22 41 -33 50 -67 6 -21 17 -38
24 -38 8 0 21 -16 30 -35 9 -19 21 -35 26 -35 6 0 9 -3 8 -7 -4 -14 45 -64
122 -125 54 -43 76 -67 77 -85 1 -18 -2 -23 -13 -19 -7 3 -14 3 -14 0 0 -2 12
-9 26 -14 14 -6 28 -19 31 -30 3 -11 9 -17 14 -14 5 3 6 10 3 16 -4 7 -2 8 5
4 6 -4 9 -11 7 -15 -3 -4 4 -12 15 -19 16 -10 19 -10 19 3 0 8 6 12 13 9 8 -3
20 3 28 12 12 16 12 17 -4 11 -11 -4 -16 -3 -12 3 7 12 86 14 84 3 -4 -22 2
-43 11 -43 7 0 7 6 0 19 -12 24 -10 25 60 41 30 7 63 17 73 22 11 5 17 5 17
-2 0 -5 5 -10 11 -10 5 0 7 5 3 12 -5 7 -3 8 6 3 10 -6 10 -11 -3 -20 -9 -7
-14 -15 -11 -18 10 -9 -15 -45 -36 -52 -11 -4 -18 -10 -15 -15 3 -4 -5 -6 -17
-3 -19 4 -20 3 -8 -7 12 -9 7 -10 -25 -6 -28 4 -34 3 -20 -4 19 -8 19 -9 -3
-9 -13 -1 -21 -5 -18 -10 4 -5 -3 -7 -14 -4 -11 3 -20 0 -20 -6 0 -25 -123 -9
-126 16 -2 19 -23 57 -23 43 -1 -9 4 -21 11 -28 7 -7 8 -12 3 -12 -6 0 -27 27
-49 60 -35 56 -99 120 -118 120 -5 0 -27 12 -49 27 -44 29 -78 81 -103 160
-10 28 -34 78 -55 110 -44 69 -58 95 -37 69 9 -11 16 -16 16 -11z m-19 -119
c5 3 7 10 4 15 -4 5 -4 9 -1 9 3 0 11 -10 17 -22 14 -26 29 -159 17 -152 -4 3
-8 17 -8 31 0 39 -38 110 -71 134 -16 11 -26 25 -23 31 4 6 17 -3 31 -21 14
-17 29 -29 34 -25z m289 -31 c13 -14 21 -25 18 -25 -2 0 -15 11 -28 25 -13 14
-21 25 -18 25 2 0 15 -11 28 -25z m120 -174 c19 -12 30 -21 24 -21 -16 0 -84
52 -114 86 -18 21 -13 18 15 -8 22 -20 56 -45 75 -57z m225 79 c-3 -5 -11 -10
-16 -10 -6 0 -7 5 -4 10 3 6 11 10 16 10 6 0 7 -4 4 -10z m-35 -10 c0 -5 -5
-10 -11 -10 -5 0 -7 5 -4 10 3 6 8 10 11 10 2 0 4 -4 4 -10z m225 -1 c-7 -11
-35 -12 -35 -1 0 4 9 8 20 9 11 1 18 -2 15 -8z m315 -80 c0 -19 -20 -18 -30 2
-8 15 -9 19 -1 15 13 -8 15 5 4 20 -5 5 0 1 10 -9 9 -11 17 -23 17 -28z m-330
1 c-8 -5 -19 -10 -25 -10 -5 0 -3 5 5 10 8 5 20 10 25 10 6 0 3 -5 -5 -10z
m-225 -31 l60 -8 -75 4 c-41 2 -86 8 -100 14 -22 10 -20 10 15 5 22 -4 67 -10
100 -15z m335 -33 c0 -3 -4 -8 -10 -11 -5 -3 -10 -1 -10 4 0 6 5 11 10 11 6 0
10 -2 10 -4z m-710 -41 c13 -14 21 -25 18 -25 -2 0 -15 11 -28 25 -13 14 -21
25 -18 25 2 0 15 -11 28 -25z m120 -139 c0 -12 -5 -7 -19 24 -11 24 -11 24 3
6 9 -11 16 -24 16 -30z m7 -48 c-3 -8 -6 -5 -6 6 -1 11 2 17 5 13 3 -3 4 -12
1 -19z m-6 -135 c13 -16 12 -17 -3 -4 -17 13 -22 21 -14 21 2 0 10 -8 17 -17z
m-74 -25 c-3 -8 -6 -5 -6 6 -1 11 2 17 5 13 3 -3 4 -12 1 -19z m59 -36 c-15
-15 -15 -15 -4 10 7 15 15 23 17 17 2 -6 -4 -18 -13 -27z m-26 -13 c0 -14 -17
-10 -23 5 -4 10 -1 13 9 9 7 -3 14 -9 14 -14z"/>
<path d="M4726 3287 c3 -10 9 -15 12 -12 3 3 0 11 -7 18 -10 9 -11 8 -5 -6z"/>
<path d="M5380 2870 c12 -8 12 -10 -5 -11 -11 0 -14 -3 -7 -6 6 -2 10 -9 6
-14 -3 -5 -1 -9 3 -9 5 0 14 9 20 19 10 16 9 20 -3 25 -24 9 -31 7 -14 -4z"/>
<path d="M5305 2840 c-3 -6 1 -7 9 -4 18 7 21 14 7 14 -6 0 -13 -4 -16 -10z"/>
<path d="M5120 2808 c0 -2 9 -11 20 -21 11 -9 20 -13 20 -7 0 5 -9 14 -20 20
-11 6 -20 9 -20 8z"/>
<path d="M5248 2773 c7 -3 16 -2 19 1 4 3 -2 6 -13 5 -11 0 -14 -3 -6 -6z"/>
<path d="M4710 3160 c6 -11 12 -20 14 -20 2 0 2 9 -1 20 -3 11 -9 20 -15 20
-5 0 -4 -9 2 -20z"/>
<path d="M5661 3394 c6 -8 8 -21 5 -30 -8 -22 31 -75 50 -67 8 3 14 13 12 22
-4 30 12 72 25 65 9 -5 9 -4 0 6 -7 8 -33 15 -58 16 -37 1 -43 -1 -34 -12z
m49 -58 c0 -3 -4 -8 -10 -11 -5 -3 -10 -1 -10 4 0 6 5 11 10 11 6 0 10 -2 10
-4z"/>
<path d="M4342 3373 c-18 -42 -12 -76 16 -88 12 -5 22 -16 22 -23 0 -8 5 -10
12 -6 8 5 1 16 -19 33 -25 21 -29 30 -22 44 6 10 9 30 7 45 l-3 27 -13 -32z"/>
<path d="M5475 3390 c-3 -5 -1 -10 4 -10 6 0 11 5 11 10 0 6 -2 10 -4 10 -3 0
-8 -4 -11 -10z"/>
<path d="M4255 3379 c-11 -16 -1 -19 13 -3 7 8 8 14 3 14 -5 0 -13 -5 -16 -11z"/>
<path d="M3396 3372 c-3 -5 9 -22 26 -38 18 -16 26 -21 19 -11 -15 19 -2 24
17 5 6 -6 14 -10 16 -7 2 2 -13 16 -34 32 -21 15 -41 23 -44 19z m25 -19 c13
-16 12 -17 -3 -4 -17 13 -22 21 -14 21 2 0 10 -8 17 -17z"/>
<path d="M5741 3354 c0 -11 3 -14 6 -6 3 7 2 16 -1 19 -3 4 -6 -2 -5 -13z"/>
<path d="M3660 3356 c0 -5 11 -24 25 -41 13 -18 23 -34 22 -36 -1 -3 4 3 11
11 8 8 18 24 23 35 8 16 6 15 -7 -2 -22 -30 -28 -29 -53 10 -11 17 -21 28 -21
23z"/>
<path d="M4267 3333 c3 -7 6 -13 8 -13 2 0 5 6 8 13 3 8 -1 14 -8 14 -7 0 -11
-6 -8 -14z"/>
<path d="M4227 3306 c-4 -10 -6 -19 -5 -20 2 -1 12 -8 23 -16 18 -13 19 -13 9
0 -7 8 -14 24 -16 35 -3 19 -4 19 -11 1z"/>
<path d="M5402 3290 c0 -19 2 -27 5 -17 2 9 2 25 0 35 -3 9 -5 1 -5 -18z"/>
<path d="M3353 3298 c2 -7 -1 -24 -8 -38 -10 -22 -8 -28 15 -53 l26 -28 19 35
c16 29 23 34 42 30 28 -7 30 7 4 30 -18 16 -20 15 -46 -29 -27 -46 -27 -47
-42 -25 -14 20 -14 25 1 56 14 31 14 34 0 34 -9 0 -14 -6 -11 -12z"/>
<path d="M6143 3303 c9 -2 23 -2 30 0 6 3 -1 5 -18 5 -16 0 -22 -2 -12 -5z"/>
<path d="M6296 3246 c3 -9 13 -16 22 -16 8 0 13 1 11 3 -2 1 -12 9 -22 16 -15
12 -17 12 -11 -3z"/>
<path d="M4386 3224 c-9 -24 -7 -52 4 -59 7 -4 8 3 4 20 -5 19 -1 30 12 40 16
12 17 14 3 15 -9 0 -20 -7 -23 -16z"/>
<path d="M6123 3233 c9 -2 23 -2 30 0 6 3 -1 5 -18 5 -16 0 -22 -2 -12 -5z"/>
<path d="M7345 3230 c-3 -5 -1 -10 4 -10 6 0 11 5 11 10 0 6 -2 10 -4 10 -3 0
-8 -4 -11 -10z"/>
<path d="M6358 3223 c12 -2 30 -2 40 0 9 3 -1 5 -23 4 -22 0 -30 -2 -17 -4z"/>
<path d="M4452 3175 c-1 -14 -11 -43 -22 -65 -32 -64 -26 -82 15 -38 38 41 53
83 38 106 -16 25 -28 24 -31 -3z"/>
<path d="M7166 3161 c-4 -5 -2 -12 4 -16 5 -3 10 -3 11 2 0 4 4 -1 9 -12 7
-15 9 -16 9 -4 1 21 -25 44 -33 30z"/>
<path d="M6445 3149 c-4 -5 -11 -7 -16 -4 -5 4 -9 1 -9 -4 0 -6 9 -11 21 -11
12 0 17 -4 13 -11 -4 -8 0 -8 15 0 11 7 21 17 21 24 0 15 -37 20 -45 6z"/>
<path d="M4511 3134 c0 -11 3 -14 6 -6 3 7 2 16 -1 19 -3 4 -6 -2 -5 -13z"/>
<path d="M6935 3141 c-3 -6 -1 -11 4 -11 6 0 11 -5 11 -11 0 -5 -4 -7 -10 -4
-6 4 -7 -1 -3 -11 4 -11 8 -13 11 -6 2 7 8 10 13 6 13 -8 10 8 -5 29 -9 12
-16 14 -21 8z"/>
<path d="M7281 3134 c0 -11 3 -14 6 -6 3 7 2 16 -1 19 -3 4 -6 -2 -5 -13z"/>
<path d="M7120 3131 c0 -7 -5 -9 -12 -5 -7 4 -10 4 -6 -1 4 -4 3 -15 -4 -24
-7 -9 -1 -6 12 6 13 12 21 26 17 29 -4 4 -7 2 -7 -5z"/>
<path d="M6660 3124 c0 -12 26 -30 38 -26 10 3 8 8 -5 18 -19 14 -33 18 -33 8z"/>
<path d="M6186 3092 c-2 -4 -1 -14 3 -21 6 -9 11 -10 15 -2 4 6 1 11 -6 11 -9
0 -9 3 2 10 9 6 10 10 3 10 -6 0 -14 -4 -17 -8z"/>
<path d="M6937 3057 c-3 -8 1 -14 9 -14 16 0 19 13 5 21 -5 3 -11 0 -14 -7z"/>
<path d="M6856 3046 c6 -15 4 -17 -6 -11 -9 5 -11 4 -6 -3 4 -7 3 -12 -3 -12
-5 0 -12 6 -14 13 -3 7 -6 5 -6 -5 -1 -22 22 -23 39 -3 10 13 11 18 1 28 -10
9 -11 8 -5 -7z"/>
<path d="M4339 2993 c-13 -16 -12 -17 4 -4 16 13 21 21 13 21 -2 0 -10 -8 -17
-17z"/>
<path d="M6350 3002 c0 -7 -5 -11 -12 -9 -6 1 -14 -6 -16 -15 -2 -13 1 -16 12
-12 16 6 30 34 21 42 -3 3 -5 0 -5 -6z"/>
<path d="M4627 2950 c3 -11 7 -20 9 -20 2 0 4 9 4 20 0 11 -4 20 -9 20 -5 0
-7 -9 -4 -20z"/>
<path d="M6375 2936 c20 -30 40 -34 49 -10 5 14 4 15 -8 5 -11 -9 -14 -8 -12
6 0 12 -7 19 -22 21 -23 4 -23 3 -7 -22z"/>
<path d="M7020 2951 c0 -6 4 -13 10 -16 6 -3 7 1 4 9 -7 18 -14 21 -14 7z"/>
<path d="M4171 2919 c-18 -6 -31 -12 -29 -14 7 -7 88 8 88 16 0 11 -15 10 -59
-2z"/>
<path d="M5861 2884 c0 -11 3 -14 6 -6 3 7 2 16 -1 19 -3 4 -6 -2 -5 -13z"/>
<path d="M6574 2885 c8 -8 18 -15 22 -15 3 0 1 7 -6 15 -7 8 -17 15 -22 15 -5
0 -3 -7 6 -15z"/>
<path d="M7240 2887 c0 -2 6 -10 14 -16 11 -9 16 -9 22 1 4 7 4 10 -1 6 -4 -4
-14 -3 -22 3 -7 6 -13 9 -13 6z"/>
<path d="M7614 2873 c2 -10 6 -17 10 -16 15 3 16 11 2 22 -12 10 -14 9 -12 -6z"/>
<path d="M5768 2857 c-3 -19 -2 -25 4 -19 6 6 8 18 6 28 -3 14 -5 12 -10 -9z"/>
<path d="M5566 2825 c-3 -9 -6 -24 -5 -33 0 -9 5 -4 10 12 9 32 6 48 -5 21z"/>
<path d="M6523 2809 c-2 -23 3 -25 10 -4 4 8 3 16 -1 19 -4 3 -9 -4 -9 -15z"/>
<path d="M6331 2803 c0 -12 2 -13 6 -5 4 10 8 10 19 1 11 -9 14 -8 14 5 0 9
-8 16 -20 16 -13 0 -20 -6 -19 -17z"/>
<path d="M7213 2814 c4 -4 -1 -13 -11 -21 -16 -12 -16 -13 2 -6 15 5 17 3 11
-8 -8 -12 -6 -12 8 0 22 17 21 27 0 35 -10 4 -14 4 -10 0z"/>
<path d="M7388 2803 c7 -3 16 -2 19 1 4 3 -2 6 -13 5 -11 0 -14 -3 -6 -6z"/>
<path d="M5520 2763 c1 -21 28 -55 34 -44 4 6 2 11 -5 11 -8 0 -9 3 0 13 6 8
8 17 4 20 -9 9 -33 9 -33 0z"/>
<path d="M5570 2761 c0 -6 4 -13 10 -16 6 -3 7 1 4 9 -7 18 -14 21 -14 7z"/>
<path d="M7097 2746 c-3 -8 0 -19 7 -25 9 -8 12 -4 12 14 0 27 -11 33 -19 11z"/>
<path d="M4697 2731 c-4 -17 -3 -21 5 -13 5 5 8 16 6 23 -3 8 -7 3 -11 -10z"/>
<path d="M5789 2723 l-24 -28 28 24 c15 14 27 26 27 28 0 8 -8 1 -31 -24z"/>
<path d="M6016 2741 c-4 -5 -2 -12 3 -15 5 -4 12 -2 15 3 4 5 2 12 -3 15 -5 4
-12 2 -15 -3z"/>
<path d="M5623 2733 c9 -2 23 -2 30 0 6 3 -1 5 -18 5 -16 0 -22 -2 -12 -5z"/>
<path d="M5835 2650 c-18 -20 -18 -20 8 -18 18 2 27 8 27 20 0 24 -13 23 -35
-2z"/>
<path d="M6143 2655 c-8 -22 5 -31 20 -15 10 10 9 11 -2 5 -11 -6 -13 -4 -8 8
3 10 4 17 1 17 -2 0 -7 -7 -11 -15z"/>
<path d="M6018 2653 c7 -3 16 -2 19 1 4 3 -2 6 -13 5 -11 0 -14 -3 -6 -6z"/>
<path d="M5669 2623 c-13 -16 -12 -17 4 -4 9 7 17 15 17 17 0 8 -8 3 -21 -13z"/>
<path d="M5740 2625 c-8 -9 -8 -15 -2 -15 12 0 26 19 19 26 -2 2 -10 -2 -17
-11z"/>
<path d="M6010 2630 c-9 -6 -10 -10 -3 -10 6 0 15 5 18 10 8 12 4 12 -15 0z"/>
<path d="M6240 2620 c-9 -6 -10 -10 -3 -10 6 0 15 5 18 10 8 12 4 12 -15 0z"/>
<path d="M5621 2592 c-13 -9 -49 -22 -80 -28 -42 -9 -48 -13 -24 -13 17 -1 44
4 60 10 15 6 36 12 47 15 23 4 29 10 25 22 -2 5 -15 3 -28 -6z"/>
<path d="M5195 2570 c7 -11 -30 -32 -40 -22 -3 4 -6 3 -5 -3 1 -5 2 -17 1 -25
-1 -13 -2 -13 -12 0 -8 12 -9 10 -4 -9 4 -13 3 -21 -1 -18 -12 7 1 -191 15
-225 6 -15 8 -36 5 -45 -5 -15 -4 -16 5 -3 9 13 11 13 12 0 1 -8 1 -18 1 -21
-1 -3 5 -6 13 -6 11 0 11 4 0 21 -23 34 -45 136 -45 202 0 69 16 108 55 134
22 14 24 18 10 24 -9 3 -13 2 -10 -4z"/>
<path d="M5243 2573 c9 -2 23 -2 30 0 6 3 -1 5 -18 5 -16 0 -22 -2 -12 -5z"/>
<path d="M6945 2570 c3 -5 8 -10 11 -10 2 0 4 5 4 10 0 6 -5 10 -11 10 -5 0
-7 -4 -4 -10z"/>
<path d="M4713 2379 c-2 -20 13 -24 34 -11 15 9 4 27 -17 28 -9 1 -17 -7 -17
-17z"/>
<path d="M5058 2370 c2 -16 6 -30 8 -30 2 0 4 14 4 30 0 17 -4 30 -8 30 -5 0
-7 -13 -4 -30z"/>
<path d="M4340 2368 c0 -7 -12 -35 -25 -63 l-24 -49 30 -48 c17 -26 34 -48 38
-48 8 1 61 85 61 99 0 18 -43 101 -53 101 -5 0 3 -21 18 -46 30 -51 28 -73 -8
-117 l-24 -28 -23 45 c-21 39 -23 47 -11 73 33 71 41 93 31 93 -5 0 -10 -6
-10 -12z"/>
<path d="M6665 2320 c3 -5 8 -10 11 -10 2 0 4 5 4 10 0 6 -5 10 -11 10 -5 0
-7 -4 -4 -10z"/>
<path d="M5222 2138 c14 -26 47 -59 83 -85 64 -45 85 -52 85 -28 0 8 6 15 13
15 6 1 -1 12 -18 27 l-30 25 35 -19 c50 -27 72 -72 78 -158 3 -56 0 -89 -17
-142 -22 -71 -47 -121 -37 -73 15 75 13 96 -3 35 -24 -88 -14 -113 18 -48 69
141 68 294 -2 368 -36 39 -73 50 -71 23 1 -13 -6 -18 -27 -18 -33 0 -95 56
-105 95 -3 14 -11 25 -16 25 -5 0 1 -19 14 -42z"/>
<path d="M5056 2034 c-14 -31 -26 -61 -26 -66 0 -13 38 -86 49 -92 4 -3 20 17
34 44 32 61 27 66 -7 8 l-24 -41 -21 34 c-26 42 -26 53 3 109 l24 44 25 -49
c14 -28 26 -46 27 -42 0 10 -49 107 -54 107 -3 0 -16 -25 -30 -56z"/>
<path d="M5366 1618 c-19 -37 -19 -38 -6 -38 6 0 10 5 10 11 0 7 8 18 18 25
11 9 13 13 4 14 -7 0 -10 5 -7 10 3 6 4 10 1 10 -2 0 -12 -14 -20 -32z"/>
</g>
</svg>
